<svg id="Layer_1" data-name="Layer 1" xmlns="http://www.w3.org/2000/svg" viewBox="0 0 878.74 141.73"><defs><style>.cls-1{fill:#090707;}.cls-2{fill:#cc252e;}.cls-3{fill:#d56127;}.cls-4{fill:#dd8629;}.cls-5{fill:#ecbb1e;}.cls-6{fill:#e5e516;}.cls-7{fill:#87bc40;}.cls-8{fill:#4ba947;}.cls-9{fill:#00a3b3;}.cls-10{fill:#006baa;}</style></defs><path class="cls-1" d="M43.67,125.13c-.27-.38-.69-.32-1.06-.38-12.39-2.07-21.1-9.12-26.27-20.84a30.71,30.71,0,0,1-2.5-9.33,36.13,36.13,0,0,1,2-15.1A183.2,183.2,0,0,1,27.24,53.26C32.85,42.32,38.93,31.67,45.32,21.2a4.73,4.73,0,0,1,1.34-1.3h1.19a4.93,4.93,0,0,1,1.7,1.92A434,434,0,0,1,71.8,62.51a120.82,120.82,0,0,1,7.8,20.23c2.76,10.32.56,19.68-5.37,28.23a32.62,32.62,0,0,1-16.79,12.5,30.55,30.55,0,0,1-6.89,1.47c-.18,0-.41-.08-.51.19Zm3.55-4.23a27.11,27.11,0,0,0,13-3.16c10.2-5.49,15.66-14.21,16.45-26,.27-4-.89-7.79-2.1-11.53a165.83,165.83,0,0,0-10.08-23.3c-5.17-10.24-10.83-20.19-16.71-30-.54-.91-.57-.9-1.19.12C39.76,38.43,33.22,50.06,27.41,62.11a161,161,0,0,0-7.92,19.26A29.79,29.79,0,0,0,47.22,120.9Z"/><path class="cls-2" d="M47.22,120.9A29.79,29.79,0,0,1,19.49,81.37a161,161,0,0,1,7.92-19.26c5.81-12,12.35-23.68,19.22-35.11.62-1,.65-1,1.19-.12,5.88,9.81,11.54,19.76,16.71,30a165.83,165.83,0,0,1,10.08,23.3c1.21,3.74,2.37,7.51,2.1,11.53-.79,11.82-6.25,20.54-16.45,26A27.11,27.11,0,0,1,47.22,120.9Zm26-29.41c0-1.4-.15-2.11-.62-2.53a1.93,1.93,0,0,0-2.12-.46,2.06,2.06,0,0,0-1.31,2.09A23.22,23.22,0,0,1,63,106.07,23.88,23.88,0,0,1,56.29,111a2.08,2.08,0,0,0-1,2.91,2,2,0,0,0,2.82.82C67.41,110,72.31,102.12,73.18,91.49ZM49.56,112.78c-1,.09-1.81.13-2.63.26a2,2,0,0,0-1.67,2.08,1.94,1.94,0,0,0,1.78,2,12.51,12.51,0,0,0,3.86-.26,1.92,1.92,0,0,0,1.49-1.93,2,2,0,0,0-1.41-2A6.84,6.84,0,0,0,49.56,112.78Z"/><path class="cls-1" d="M73.18,91.49c-.87,10.63-5.77,18.47-15.12,23.23a2,2,0,0,1-2.82-.82,2.08,2.08,0,0,1,1-2.91A23.88,23.88,0,0,0,63,106.07a23.22,23.22,0,0,0,6.16-15.48,2.06,2.06,0,0,1,1.31-2.09,1.93,1.93,0,0,1,2.12.46C73,89.38,73.17,90.09,73.18,91.49Z"/><path class="cls-1" d="M49.56,112.78a6.84,6.84,0,0,1,1.42.12,2,2,0,0,1,1.41,2,1.92,1.92,0,0,1-1.49,1.93,12.51,12.51,0,0,1-3.86.26,1.94,1.94,0,0,1-1.78-2A2,2,0,0,1,46.93,113C47.75,112.91,48.58,112.87,49.56,112.78Z"/><path class="cls-1" d="M140.34,125.48c-.27-.39-.7-.32-1.06-.38C126.89,123,118.18,116,113,104.25a30.87,30.87,0,0,1-2.51-9.32,36.27,36.27,0,0,1,2-15.1,182.71,182.71,0,0,1,11.39-26.22C129.51,42.67,135.59,32,142,21.55a4.83,4.83,0,0,1,1.33-1.3h1.2a4.87,4.87,0,0,1,1.7,1.92,436.19,436.19,0,0,1,22.25,40.68,122.33,122.33,0,0,1,7.79,20.23c2.77,10.32.57,19.69-5.36,28.23a32.64,32.64,0,0,1-16.79,12.51,30.75,30.75,0,0,1-6.9,1.47c-.18,0-.4-.08-.5.19Zm3.54-4.23a27.24,27.24,0,0,0,13.05-3.16c10.19-5.49,15.66-14.21,16.45-26,.27-4-.89-7.79-2.1-11.52a167.18,167.18,0,0,0-10.09-23.31C156,47,150.37,37,144.49,27.22c-.54-.9-.57-.9-1.19.12-6.88,11.44-13.42,23.07-19.22,35.12a159.17,159.17,0,0,0-7.92,19.25,29.8,29.8,0,0,0,27.72,39.54Z"/><path class="cls-3" d="M143.88,121.25a29.8,29.8,0,0,1-27.72-39.54,159.17,159.17,0,0,1,7.92-19.25c5.8-12.05,12.34-23.68,19.22-35.12.62-1,.65-1,1.19-.12C150.37,37,156,47,161.19,57.22a167.18,167.18,0,0,1,10.09,23.31c1.21,3.73,2.37,7.51,2.1,11.52-.79,11.83-6.26,20.55-16.45,26A27.24,27.24,0,0,1,143.88,121.25Zm26-29.41c0-1.41-.15-2.11-.62-2.54a2,2,0,0,0-2.12-.46,2.08,2.08,0,0,0-1.31,2.09,23.18,23.18,0,0,1-6.16,15.48,24.2,24.2,0,0,1-6.68,4.93,2.08,2.08,0,0,0-1.06,2.9,2,2,0,0,0,2.83.82C164.08,110.31,169,102.46,169.85,91.84Zm-23.62,21.28c-1,.1-1.82.13-2.63.26a2,2,0,0,0-1.67,2.09,1.94,1.94,0,0,0,1.78,2,12.15,12.15,0,0,0,3.85-.27,1.92,1.92,0,0,0,1.5-1.93,2,2,0,0,0-1.41-2A7.78,7.78,0,0,0,146.23,113.12Z"/><path class="cls-1" d="M169.85,91.84c-.87,10.62-5.77,18.47-15.12,23.22a2,2,0,0,1-2.83-.82,2.08,2.08,0,0,1,1.06-2.9,24.2,24.2,0,0,0,6.68-4.93,23.18,23.18,0,0,0,6.16-15.48,2.08,2.08,0,0,1,1.31-2.09,2,2,0,0,1,2.12.46C169.7,89.73,169.84,90.43,169.85,91.84Z"/><path class="cls-1" d="M146.23,113.12a7.78,7.78,0,0,1,1.42.13,2,2,0,0,1,1.41,2,1.92,1.92,0,0,1-1.5,1.93,12.15,12.15,0,0,1-3.85.27,1.94,1.94,0,0,1-1.78-2,2,2,0,0,1,1.67-2.09C144.41,113.25,145.24,113.22,146.23,113.12Z"/><path class="cls-1" d="M237,126c-.26-.38-.69-.32-1.05-.38-12.4-2.07-21.11-9.12-26.27-20.84a31,31,0,0,1-2.51-9.33,36.29,36.29,0,0,1,2-15.1,184.33,184.33,0,0,1,11.39-26.22c5.61-10.94,11.69-21.59,18.09-32.06a4.57,4.57,0,0,1,1.33-1.3h1.2a5,5,0,0,1,1.7,1.92,435.05,435.05,0,0,1,22.24,40.68,121.26,121.26,0,0,1,7.8,20.24c2.76,10.31.56,19.68-5.36,28.23a32.65,32.65,0,0,1-16.8,12.5,30.55,30.55,0,0,1-6.89,1.47c-.18,0-.41-.08-.5.19Zm3.55-4.23a27.26,27.26,0,0,0,13-3.16c10.19-5.49,15.65-14.21,16.44-26,.27-4-.88-7.8-2.1-11.53a165.32,165.32,0,0,0-10.08-23.3c-5.16-10.24-10.82-20.19-16.7-30-.54-.91-.58-.91-1.19.12C233.09,39.3,226.55,50.93,220.74,63a159.26,159.26,0,0,0-7.91,19.26,29.79,29.79,0,0,0,27.72,39.53Z"/><path class="cls-4" d="M240.55,121.77a29.79,29.79,0,0,1-27.72-39.53A159.26,159.26,0,0,1,220.74,63c5.81-12,12.35-23.68,19.23-35.11.61-1,.65-1,1.19-.12,5.88,9.81,11.54,19.76,16.7,30a165.32,165.32,0,0,1,10.08,23.3c1.22,3.73,2.37,7.51,2.1,11.53-.79,11.82-6.25,20.54-16.44,26A27.26,27.26,0,0,1,240.55,121.77Zm26-29.41c0-1.41-.16-2.11-.62-2.53a2,2,0,0,0-2.13-.46,2.07,2.07,0,0,0-1.31,2.09,23.12,23.12,0,0,1-6.16,15.47,23.72,23.72,0,0,1-6.68,4.93,2.09,2.09,0,0,0-1.05,2.91,2,2,0,0,0,2.83.82C260.75,110.83,265.65,103,266.52,92.36ZM242.9,113.65c-1,.09-1.82.13-2.64.25A2,2,0,0,0,238.6,116a1.94,1.94,0,0,0,1.78,2,12.45,12.45,0,0,0,3.85-.26,1.91,1.91,0,0,0,1.49-1.93,2,2,0,0,0-1.41-2A6.75,6.75,0,0,0,242.9,113.65Z"/><path class="cls-1" d="M266.52,92.36c-.87,10.62-5.77,18.47-15.12,23.23a2,2,0,0,1-2.83-.82,2.09,2.09,0,0,1,1.05-2.91,23.72,23.72,0,0,0,6.68-4.93,23.12,23.12,0,0,0,6.16-15.47,2.07,2.07,0,0,1,1.31-2.09,2,2,0,0,1,2.13.46C266.36,90.25,266.5,91,266.52,92.36Z"/><path class="cls-1" d="M242.9,113.65a6.75,6.75,0,0,1,1.41.12,2,2,0,0,1,1.41,2,1.91,1.91,0,0,1-1.49,1.93,12.45,12.45,0,0,1-3.85.26,1.94,1.94,0,0,1-1.78-2,2,2,0,0,1,1.66-2.09C241.08,113.78,241.91,113.74,242.9,113.65Z"/><path class="cls-1" d="M333.67,124.52c-.27-.38-.69-.31-1.06-.38-12.39-2.07-21.1-9.11-26.27-20.84a30.63,30.63,0,0,1-2.5-9.33,36.29,36.29,0,0,1,2-15.1,183.69,183.69,0,0,1,11.39-26.22c5.61-10.93,11.69-21.59,18.08-32a4.91,4.91,0,0,1,1.34-1.31h1.19a4.93,4.93,0,0,1,1.7,1.92A434,434,0,0,1,361.8,61.9a121.16,121.16,0,0,1,7.8,20.23c2.76,10.32.56,19.68-5.36,28.23a32.76,32.76,0,0,1-16.8,12.51,30.53,30.53,0,0,1-6.89,1.46c-.18,0-.41-.08-.5.19Zm3.55-4.23a27.11,27.11,0,0,0,13-3.16c10.2-5.49,15.66-14.21,16.45-26,.27-4-.89-7.79-2.1-11.52a166,166,0,0,0-10.08-23.31c-5.17-10.24-10.83-20.18-16.7-30-.55-.91-.58-.9-1.2.12-6.87,11.43-13.41,23.06-19.22,35.12a160.13,160.13,0,0,0-7.92,19.25,29.87,29.87,0,0,0-.46,18C312.65,111.36,324.37,120.32,337.22,120.29Z"/><path class="cls-5" d="M337.22,120.29c-12.85,0-24.57-8.93-28.19-21.49a29.87,29.87,0,0,1,.46-18,160.13,160.13,0,0,1,7.92-19.25c5.81-12.06,12.35-23.69,19.22-35.12.62-1,.65-1,1.2-.12,5.87,9.82,11.53,19.76,16.7,30a166,166,0,0,1,10.08,23.31c1.21,3.73,2.37,7.5,2.1,11.52-.79,11.82-6.25,20.54-16.45,26A27.11,27.11,0,0,1,337.22,120.29Zm26-29.4c0-1.41-.15-2.12-.62-2.54a1.93,1.93,0,0,0-2.12-.46A2.06,2.06,0,0,0,359.13,90,23.17,23.17,0,0,1,353,105.46a24.11,24.11,0,0,1-6.68,4.93,2.07,2.07,0,0,0-1.05,2.9,2,2,0,0,0,2.82.82C357.41,109.35,362.31,101.51,363.18,90.89Zm-23.62,21.28c-1,.09-1.81.13-2.63.26a2,2,0,0,0-1.67,2.09,1.94,1.94,0,0,0,1.79,2,11.89,11.89,0,0,0,3.85-.26,1.91,1.91,0,0,0,1.49-1.93,2,2,0,0,0-1.41-2A7.61,7.61,0,0,0,339.56,112.17Z"/><path class="cls-1" d="M363.18,90.89c-.87,10.62-5.77,18.46-15.12,23.22a2,2,0,0,1-2.82-.82,2.07,2.07,0,0,1,1.05-2.9,24.11,24.11,0,0,0,6.68-4.93A23.17,23.17,0,0,0,359.13,90a2.06,2.06,0,0,1,1.31-2.09,1.93,1.93,0,0,1,2.12.46C363,88.77,363.17,89.48,363.18,90.89Z"/><path class="cls-1" d="M339.56,112.17a7.61,7.61,0,0,1,1.42.12,2,2,0,0,1,1.41,2,1.91,1.91,0,0,1-1.49,1.93,11.89,11.89,0,0,1-3.85.26,1.94,1.94,0,0,1-1.79-2,2,2,0,0,1,1.67-2.09C337.75,112.3,338.58,112.26,339.56,112.17Z"/><path class="cls-1" d="M430.34,124.52c-.27-.38-.7-.31-1.06-.38-12.39-2.07-21.1-9.11-26.27-20.84a30.63,30.63,0,0,1-2.5-9.33,36.13,36.13,0,0,1,2-15.1,183.69,183.69,0,0,1,11.39-26.22c5.6-10.93,11.68-21.59,18.08-32a4.91,4.91,0,0,1,1.34-1.31h1.19a5,5,0,0,1,1.7,1.92A436.36,436.36,0,0,1,458.47,61.9a122.92,122.92,0,0,1,7.8,20.23c2.76,10.32.56,19.68-5.37,28.23a32.7,32.7,0,0,1-16.79,12.51,30.77,30.77,0,0,1-6.89,1.46c-.18,0-.41-.08-.51.19Zm3.55-4.23a27.11,27.11,0,0,0,13-3.16c10.2-5.49,15.66-14.21,16.45-26,.27-4-.89-7.79-2.1-11.52a167.18,167.18,0,0,0-10.09-23.31c-5.16-10.24-10.82-20.18-16.7-30-.54-.91-.57-.9-1.19.12-6.88,11.43-13.42,23.06-19.22,35.12a158.51,158.51,0,0,0-7.92,19.25,29.79,29.79,0,0,0,27.73,39.53Z"/><path class="cls-6" d="M433.89,120.29a29.79,29.79,0,0,1-27.73-39.53,158.51,158.51,0,0,1,7.92-19.25c5.8-12.06,12.34-23.69,19.22-35.12.62-1,.65-1,1.19-.12,5.88,9.82,11.54,19.76,16.7,30a167.18,167.18,0,0,1,10.09,23.31c1.21,3.73,2.37,7.5,2.1,11.52-.79,11.82-6.25,20.54-16.45,26A27.11,27.11,0,0,1,433.89,120.29Zm26-29.4c0-1.41-.15-2.12-.62-2.54a1.93,1.93,0,0,0-2.12-.46A2.06,2.06,0,0,0,455.8,90a23.22,23.22,0,0,1-6.16,15.48,24.41,24.41,0,0,1-6.68,4.93,2.08,2.08,0,0,0-1.06,2.9,2,2,0,0,0,2.83.82C454.08,109.35,459,101.51,459.85,90.89Zm-23.62,21.28c-1,.09-1.81.13-2.63.26a2,2,0,0,0-1.67,2.09,1.93,1.93,0,0,0,1.78,2,11.87,11.87,0,0,0,3.85-.26,1.92,1.92,0,0,0,1.5-1.93,2,2,0,0,0-1.41-2A7.68,7.68,0,0,0,436.23,112.17Z"/><path class="cls-1" d="M459.85,90.89c-.87,10.62-5.77,18.46-15.12,23.22a2,2,0,0,1-2.83-.82,2.08,2.08,0,0,1,1.06-2.9,24.41,24.41,0,0,0,6.68-4.93A23.22,23.22,0,0,0,455.8,90a2.06,2.06,0,0,1,1.31-2.09,1.93,1.93,0,0,1,2.12.46C459.7,88.77,459.84,89.48,459.85,90.89Z"/><path class="cls-1" d="M436.23,112.17a7.68,7.68,0,0,1,1.42.12,2,2,0,0,1,1.41,2,1.92,1.92,0,0,1-1.5,1.93,11.87,11.87,0,0,1-3.85.26,1.93,1.93,0,0,1-1.78-2,2,2,0,0,1,1.67-2.09C434.42,112.3,435.25,112.26,436.23,112.17Z"/><path class="cls-1" d="M527,124.87c-.26-.38-.69-.32-1-.38-12.39-2.07-21.11-9.12-26.27-20.84a31,31,0,0,1-2.51-9.33,36.29,36.29,0,0,1,2-15.1A184.33,184.33,0,0,1,510.57,53c5.61-10.94,11.69-21.59,18.09-32.06a4.57,4.57,0,0,1,1.33-1.3h1.2a4.87,4.87,0,0,1,1.7,1.92,436.19,436.19,0,0,1,22.25,40.68,122.1,122.1,0,0,1,7.79,20.24c2.76,10.31.57,19.68-5.36,28.23a32.65,32.65,0,0,1-16.8,12.5,30.55,30.55,0,0,1-6.89,1.47c-.18,0-.41-.08-.5.19Zm3.55-4.23a27.26,27.26,0,0,0,13.05-3.16c10.19-5.49,15.65-14.21,16.45-26,.26-4-.89-7.8-2.11-11.53a166,166,0,0,0-10.08-23.31c-5.16-10.23-10.82-20.18-16.7-30-.54-.91-.58-.91-1.19.12-6.88,11.43-13.42,23.06-19.23,35.11a158.6,158.6,0,0,0-7.91,19.26,29.79,29.79,0,0,0,27.72,39.53Z"/><path class="cls-7" d="M530.55,120.64a29.79,29.79,0,0,1-27.72-39.53,158.6,158.6,0,0,1,7.91-19.26C516.55,49.8,523.09,38.17,530,26.74c.61-1,.65-1,1.19-.12,5.88,9.81,11.54,19.76,16.7,30a166,166,0,0,1,10.08,23.31c1.22,3.73,2.37,7.51,2.11,11.53-.8,11.82-6.26,20.54-16.45,26A27.26,27.26,0,0,1,530.55,120.64Zm26-29.41c0-1.41-.16-2.11-.62-2.53a2,2,0,0,0-2.13-.46,2.07,2.07,0,0,0-1.31,2.08,23.13,23.13,0,0,1-6.16,15.48,23.91,23.91,0,0,1-6.68,4.93,2.09,2.09,0,0,0-1,2.9,2,2,0,0,0,2.83.83C550.75,109.7,555.65,101.85,556.52,91.23ZM532.9,112.51c-1,.1-1.82.14-2.63.26a2,2,0,0,0-1.67,2.09,1.94,1.94,0,0,0,1.78,2,12.45,12.45,0,0,0,3.85-.26,1.91,1.91,0,0,0,1.49-1.93,2,2,0,0,0-1.41-2A7.6,7.6,0,0,0,532.9,112.51Z"/><path class="cls-1" d="M556.52,91.23c-.87,10.62-5.77,18.47-15.12,23.23a2,2,0,0,1-2.83-.83,2.09,2.09,0,0,1,1-2.9,23.91,23.91,0,0,0,6.68-4.93,23.13,23.13,0,0,0,6.16-15.48,2.07,2.07,0,0,1,1.31-2.08,2,2,0,0,1,2.13.46C556.36,89.12,556.5,89.82,556.52,91.23Z"/><path class="cls-1" d="M532.9,112.51a7.6,7.6,0,0,1,1.41.13,2,2,0,0,1,1.41,2,1.91,1.91,0,0,1-1.49,1.93,12.45,12.45,0,0,1-3.85.26,1.94,1.94,0,0,1-1.78-2,2,2,0,0,1,1.67-2.09C531.08,112.65,531.91,112.61,532.9,112.51Z"/><path class="cls-1" d="M623.67,125.39c-.26-.38-.69-.32-1.06-.38-12.39-2.07-21.1-9.12-26.27-20.84a30.71,30.71,0,0,1-2.5-9.33,36.29,36.29,0,0,1,2-15.1,183.69,183.69,0,0,1,11.39-26.22c5.61-10.93,11.69-21.59,18.08-32.06a5,5,0,0,1,1.34-1.3h1.19a4.85,4.85,0,0,1,1.7,1.92A431.76,431.76,0,0,1,651.8,62.77,121.16,121.16,0,0,1,659.6,83c2.76,10.32.56,19.68-5.36,28.23a32.76,32.76,0,0,1-16.8,12.51,30.53,30.53,0,0,1-6.89,1.46c-.18,0-.41-.08-.5.19Zm3.55-4.23a27.08,27.08,0,0,0,13-3.16c10.2-5.49,15.66-14.21,16.45-26,.27-4-.89-7.79-2.1-11.52a166,166,0,0,0-10.08-23.31c-5.16-10.24-10.82-20.19-16.7-30-.55-.91-.58-.9-1.2.12-6.87,11.43-13.41,23.06-19.22,35.12a160.13,160.13,0,0,0-7.92,19.25,29.79,29.79,0,0,0,27.73,39.53Z"/><path class="cls-8" d="M627.22,121.16a29.79,29.79,0,0,1-27.73-39.53,160.13,160.13,0,0,1,7.92-19.25c5.81-12.06,12.35-23.69,19.22-35.12.62-1,.65-1,1.2-.12,5.88,9.81,11.54,19.76,16.7,30a166,166,0,0,1,10.08,23.31c1.21,3.73,2.37,7.5,2.1,11.52-.79,11.82-6.25,20.54-16.45,26A27.08,27.08,0,0,1,627.22,121.16Zm26-29.4c0-1.41-.15-2.12-.62-2.54a1.93,1.93,0,0,0-2.12-.46,2.06,2.06,0,0,0-1.31,2.09A23.17,23.17,0,0,1,643,106.33a23.88,23.88,0,0,1-6.68,4.92,2.09,2.09,0,0,0-1,2.91,2,2,0,0,0,2.82.82C647.42,110.22,652.31,102.38,653.18,91.76ZM629.56,113c-1,.09-1.81.13-2.63.26a2,2,0,0,0-1.67,2.08,1.94,1.94,0,0,0,1.79,2,11.89,11.89,0,0,0,3.85-.26,1.91,1.91,0,0,0,1.49-1.93,2,2,0,0,0-1.41-2A7.61,7.61,0,0,0,629.56,113Z"/><path class="cls-1" d="M653.18,91.76c-.87,10.62-5.76,18.46-15.12,23.22a2,2,0,0,1-2.82-.82,2.09,2.09,0,0,1,1-2.91,23.88,23.88,0,0,0,6.68-4.92,23.17,23.17,0,0,0,6.16-15.48,2.06,2.06,0,0,1,1.31-2.09,1.93,1.93,0,0,1,2.12.46C653,89.64,653.17,90.35,653.18,91.76Z"/><path class="cls-1" d="M629.56,113a7.61,7.61,0,0,1,1.42.12,2,2,0,0,1,1.41,2,1.91,1.91,0,0,1-1.49,1.93,11.89,11.89,0,0,1-3.85.26,1.94,1.94,0,0,1-1.79-2,2,2,0,0,1,1.67-2.08C627.75,113.17,628.58,113.13,629.56,113Z"/><path class="cls-1" d="M726.66,126.78c-.26-.38-.69-.32-1.06-.38-12.39-2.07-21.1-9.12-26.27-20.84a31.29,31.29,0,0,1-2.5-9.33,36.29,36.29,0,0,1,2-15.1,184.33,184.33,0,0,1,11.39-26.22c5.61-10.94,11.69-21.59,18.08-32.06a4.73,4.73,0,0,1,1.34-1.3h1.2a4.9,4.9,0,0,1,1.69,1.92,431.76,431.76,0,0,1,22.25,40.69,120.82,120.82,0,0,1,7.8,20.23c2.76,10.32.56,19.68-5.36,28.23a32.69,32.69,0,0,1-16.8,12.5,30.55,30.55,0,0,1-6.89,1.47c-.18,0-.41-.08-.5.19Zm3.55-4.23a27.08,27.08,0,0,0,13-3.16c10.2-5.49,15.66-14.21,16.45-26,.27-4-.88-7.79-2.1-11.53a165.32,165.32,0,0,0-10.08-23.3c-5.16-10.24-10.82-20.19-16.7-30-.55-.91-.58-.91-1.19.12-6.88,11.43-13.42,23.06-19.23,35.11A161,161,0,0,0,702.48,83a29.79,29.79,0,0,0,27.73,39.53Z"/><path class="cls-9" d="M730.21,122.55A29.79,29.79,0,0,1,702.48,83a161,161,0,0,1,7.92-19.26c5.81-12,12.35-23.68,19.23-35.11.61-1,.64-1,1.19-.12,5.88,9.81,11.54,19.76,16.7,30a165.32,165.32,0,0,1,10.08,23.3c1.22,3.74,2.37,7.51,2.1,11.53-.79,11.82-6.25,20.54-16.45,26A27.08,27.08,0,0,1,730.21,122.55Zm26-29.41c0-1.4-.15-2.11-.61-2.53a2,2,0,0,0-2.13-.46,2.07,2.07,0,0,0-1.31,2.09A23.17,23.17,0,0,1,746,107.72a23.88,23.88,0,0,1-6.68,4.92,2.09,2.09,0,0,0-1,2.91,2,2,0,0,0,2.82.82C750.41,111.61,755.3,103.77,756.17,93.14Zm-23.62,21.29c-1,.09-1.81.13-2.63.26a2,2,0,0,0-1.66,2.08,1.94,1.94,0,0,0,1.78,2,12.45,12.45,0,0,0,3.85-.26,1.92,1.92,0,0,0,1.49-1.93,2,2,0,0,0-1.41-2A6.84,6.84,0,0,0,732.55,114.43Z"/><path class="cls-1" d="M756.17,93.14c-.87,10.63-5.76,18.47-15.12,23.23a2,2,0,0,1-2.82-.82,2.09,2.09,0,0,1,1-2.91,23.88,23.88,0,0,0,6.68-4.92,23.17,23.17,0,0,0,6.16-15.48,2.07,2.07,0,0,1,1.31-2.09,2,2,0,0,1,2.13.46C756,91,756.16,91.74,756.17,93.14Z"/><path class="cls-1" d="M732.55,114.43a6.84,6.84,0,0,1,1.42.12,2,2,0,0,1,1.41,2,1.92,1.92,0,0,1-1.49,1.93,12.45,12.45,0,0,1-3.85.26,1.94,1.94,0,0,1-1.78-2,2,2,0,0,1,1.66-2.08C730.74,114.56,731.57,114.52,732.55,114.43Z"/><path class="cls-1" d="M823.33,127.3c-.27-.38-.69-.31-1.06-.37-12.39-2.08-21.1-9.12-26.27-20.85a30.63,30.63,0,0,1-2.5-9.33,36.13,36.13,0,0,1,2-15.1A183.08,183.08,0,0,1,806.9,55.44c5.61-10.94,11.69-21.6,18.08-32.06a4.91,4.91,0,0,1,1.34-1.31h1.19a4.93,4.93,0,0,1,1.7,1.92,436.36,436.36,0,0,1,22.25,40.69,122.37,122.37,0,0,1,7.8,20.23c2.76,10.32.56,19.68-5.37,28.23a32.7,32.7,0,0,1-16.79,12.51,30.53,30.53,0,0,1-6.89,1.46c-.18,0-.41-.08-.51.19Zm3.55-4.23a27.11,27.11,0,0,0,13-3.16c10.2-5.49,15.66-14.21,16.45-26,.27-4-.89-7.79-2.1-11.52a166,166,0,0,0-10.08-23.31c-5.17-10.24-10.83-20.18-16.71-30-.54-.91-.57-.9-1.19.12-6.87,11.43-13.42,23.06-19.22,35.12a160.13,160.13,0,0,0-7.92,19.25,29.79,29.79,0,0,0,27.73,39.53Z"/><path class="cls-10" d="M826.88,123.07a29.79,29.79,0,0,1-27.73-39.53,160.13,160.13,0,0,1,7.92-19.25c5.8-12.06,12.35-23.69,19.22-35.12.62-1,.65-1,1.19-.12,5.88,9.82,11.54,19.76,16.71,30a166,166,0,0,1,10.08,23.31c1.21,3.73,2.37,7.5,2.1,11.52-.79,11.82-6.25,20.54-16.45,26A27.11,27.11,0,0,1,826.88,123.07Zm26-29.4c0-1.41-.15-2.12-.62-2.54a1.93,1.93,0,0,0-2.12-.46,2.06,2.06,0,0,0-1.31,2.09,23.2,23.2,0,0,1-6.16,15.48,24.11,24.11,0,0,1-6.68,4.93,2.07,2.07,0,0,0-1.05,2.9,2,2,0,0,0,2.82.82C847.07,112.14,852,104.29,852.84,93.67ZM829.22,115c-1,.09-1.81.13-2.63.26a2,2,0,0,0-1.67,2.09,1.93,1.93,0,0,0,1.78,2,12,12,0,0,0,3.86-.26,1.92,1.92,0,0,0,1.49-1.93,2,2,0,0,0-1.41-2A7.68,7.68,0,0,0,829.22,115Z"/><path class="cls-1" d="M852.84,93.67c-.87,10.62-5.77,18.47-15.12,23.22a2,2,0,0,1-2.82-.82,2.07,2.07,0,0,1,1.05-2.9,24.11,24.11,0,0,0,6.68-4.93,23.2,23.2,0,0,0,6.16-15.48,2.06,2.06,0,0,1,1.31-2.09,1.93,1.93,0,0,1,2.12.46C852.69,91.55,852.83,92.26,852.84,93.67Z"/><path class="cls-1" d="M829.22,115a7.68,7.68,0,0,1,1.42.12,2,2,0,0,1,1.41,2,1.92,1.92,0,0,1-1.49,1.93,12,12,0,0,1-3.86.26,1.93,1.93,0,0,1-1.78-2,2,2,0,0,1,1.67-2.09C827.41,115.08,828.24,115,829.22,115Z"/></svg>