<svg id="Layer_1" data-name="Layer 1" xmlns="http://www.w3.org/2000/svg" viewBox="0 0 1700.79 566.93"><defs><style>.cls-1,.cls-2{fill:#fff;}.cls-2{font-size:125px;font-family:BebasNeue-Regular, Bebas Neue;}.cls-3{letter-spacing:0em;}.cls-4{letter-spacing:-0.05em;}.cls-5{letter-spacing:0em;}.cls-6{letter-spacing:-0.02em;}.cls-7{letter-spacing:-0.01em;}.cls-8{letter-spacing:0.01em;}.cls-9{letter-spacing:-0.01em;}.cls-10{letter-spacing:0em;}</style></defs><g id="HxAGga"><path class="cls-1" d="M52.42,299.3V275.37a24.08,24.08,0,0,0,.46-2.65,234.28,234.28,0,0,1,15-71C90.55,142.69,129.84,98.08,186,69c51.36-26.61,105.78-33.47,162.35-21.59,46.14,9.69,86.12,31.37,119.67,64.43q62.36,61.47,72.4,148.72c.57,4.94,1,9.89,1.52,14.83V299.3c-.16.88-.38,1.76-.47,2.65-.52,5.41-.86,10.84-1.55,16.23-6.31,49.21-25.63,92.76-58.32,130-43.22,49.2-97.59,77.34-163,83.56A232.83,232.83,0,0,1,229.07,523c-58.21-17.44-104-51.83-137.25-102.58A237.82,237.82,0,0,1,53.91,313.86C53.39,309,52.91,304.15,52.42,299.3Zm468.51-11.85C521,163.81,420.55,63,297.26,62.88,172.48,62.78,70.81,165.93,73.38,292c2.46,120.83,101.2,219.68,223.78,219.74C420.62,511.85,520.85,411.37,520.93,287.45Z"/><path class="cls-1" d="M300.73,172.85q67.44,0,134.87,0c12.6,0,22.37,6.24,26.53,17.46a38.66,38.66,0,0,1,2.18,13c.14,46.67.07,93.35.06,140,0,9.79.1,19.58,0,29.37-.13,13.09-7,23.5-18.37,27.47a30.47,30.47,0,0,1-9.86,1.57q-135.4.12-270.82,0c-16.4,0-28-12.2-28.07-29.22q0-71.79,0-143.58c0-9.78-.12-19.58.07-29.36a27.67,27.67,0,0,1,22.6-26.34,43.49,43.49,0,0,1,7.58-.44Q234.12,172.83,300.73,172.85ZM171.65,193.23c.71.77,1.08,1.24,1.52,1.64q54.65,50,109.37,100c4,3.68,8.87,6.53,13.52,9.47a8.55,8.55,0,0,0,9.35.05c4.87-3.09,9.93-6.1,14.17-9.95Q374.11,244.87,428.35,195a20.69,20.69,0,0,0,1.49-1.76Zm.51,188.13h257.3l-84.82-77.82c-4.58,4.13-9.07,7.93-13.3,12-16.11,15.57-45.26,15.88-61.76-.59-3.95-4-8.27-7.54-12.58-11.43Zm70.27-93.08L157.8,211.59V367.12Zm201.4-76.71-84.66,76.71,84.66,78.86Z"/></g><text class="cls-2" transform="translate(660.13 336.99)"><tspan class="cls-3">C</tspan><tspan x="48.12" y="0">on</tspan><tspan class="cls-4" x="151.5" y="0">t</tspan><tspan class="cls-5" x="191.25" y="0">a</tspan><tspan x="241.12" y="0">c</tspan><tspan class="cls-6" x="289" y="0">t</tspan><tspan class="cls-7" x="331.37" y="0">@</tspan><tspan class="cls-5" x="416.5" y="0">a</tspan><tspan x="466.37" y="0">cr</tspan><tspan class="cls-8" x="564.62" y="0">l</tspan><tspan class="cls-9" x="608.87" y="0">.</tspan><tspan class="cls-3" x="631.62" y="0">c</tspan><tspan x="679.74" y="0">om</tspan><tspan class="cls-8" x="796.99" y="0">.</tspan><tspan class="cls-5" x="821.74" y="0">a</tspan><tspan class="cls-10" x="871.61" y="0">u</tspan></text></svg>