<svg id="Layer_1" data-name="Layer 1" xmlns="http://www.w3.org/2000/svg" viewBox="0 0 1700.79 566.93"><defs><style>.cls-1,.cls-2{fill:#fff;}.cls-2{font-size:125px;font-family:BebasNeue-Regular, Bebas Neue;}.cls-3{letter-spacing:0em;}.cls-4{letter-spacing:-0.05em;}.cls-5{letter-spacing:0em;}.cls-6{letter-spacing:-0.02em;}.cls-7{letter-spacing:-0.02em;}.cls-8{letter-spacing:0.01em;}.cls-9{letter-spacing:-0.01em;}</style></defs><g id="HxAGga"><path class="cls-1" d="M51.69,299.3V275.37a24,24,0,0,0,.44-2.65,242,242,0,0,1,14.46-71C88.45,142.69,126.32,98.08,180.45,69,230,42.37,282.43,35.51,337,47.39c44.47,9.69,83,31.37,115.36,64.43q60.12,61.47,69.8,148.72c.54,4.94,1,9.89,1.46,14.83V299.3c-.15.88-.36,1.76-.45,2.65-.51,5.41-.83,10.84-1.49,16.23-6.09,49.21-24.71,92.76-56.23,130-41.67,49.2-94.08,77.34-157.12,83.56A216.72,216.72,0,0,1,222,523c-56.12-17.44-100.22-51.83-132.32-102.58C69.2,388,57.11,352.39,53.13,313.86,52.63,309,52.17,304.15,51.69,299.3Zm451.65-11.85C503.41,163.81,406.58,63,287.73,62.88,167.43,62.78,69.42,165.93,71.9,292c2.37,120.83,97.55,219.68,215.72,219.74C406.64,511.85,503.27,411.37,503.34,287.45Z"/><path class="cls-1" d="M291.07,172.85q65,0,130,0c12.15,0,21.57,6.24,25.57,17.46a39.61,39.61,0,0,1,2.1,13c.13,46.67.07,93.35.06,140,0,9.79.1,19.58,0,29.37-.13,13.09-6.75,23.5-17.71,27.47a28.39,28.39,0,0,1-9.5,1.57q-130.55.12-261.08,0c-15.81,0-27.05-12.2-27.06-29.22q0-71.79,0-143.58c0-9.78-.11-19.58.07-29.36.24-12.86,9.6-24.11,21.78-26.34a40.51,40.51,0,0,1,7.31-.44Q226.85,172.83,291.07,172.85ZM166.63,193.23c.68.77,1,1.24,1.46,1.64q52.68,50,105.44,100c3.9,3.68,8.55,6.53,13,9.47a8,8,0,0,0,9,.05c4.69-3.09,9.57-6.1,13.66-9.95Q361.8,244.87,414.1,195a19.84,19.84,0,0,0,1.43-1.76Zm.49,188.13h248L333.4,303.54c-4.42,4.13-8.75,7.93-12.82,12C305.05,331.13,277,331.44,261,315c-3.81-4-8-7.54-12.13-11.43C221.71,329.43,194.65,355.17,167.12,381.36Zm67.74-93.08-81.58-76.69V367.12ZM429,211.57c-27.39,25.75-54.39,51.13-81.62,76.71L429,367.14Z"/></g><text class="cls-2" transform="translate(610.61 336.99) scale(0.96 1)"><tspan class="cls-3">C</tspan><tspan x="48.12" y="0">on</tspan><tspan class="cls-4" x="151.5" y="0">t</tspan><tspan class="cls-5" x="191.25" y="0">a</tspan><tspan x="241.12" y="0">c</tspan><tspan class="cls-6" x="289" y="0">t</tspan><tspan class="cls-7" x="331.37" y="0">@</tspan><tspan class="cls-5" x="416.5" y="0">a</tspan><tspan x="466.37" y="0">cr</tspan><tspan class="cls-8" x="564.62" y="0">l</tspan><tspan class="cls-9" x="608.87" y="0">.</tspan><tspan class="cls-3" x="631.62" y="0">c</tspan><tspan x="679.74" y="0">om</tspan><tspan class="cls-8" x="796.99" y="0">.</tspan><tspan class="cls-5" x="821.74" y="0">a</tspan><tspan x="871.61" y="0">u</tspan></text></svg>