<svg id="Layer_1" data-name="Layer 1" xmlns="http://www.w3.org/2000/svg" viewBox="0 0 850.39 283.46"><defs><style>.cls-1,.cls-2{fill:#fff;}.cls-2{font-size:81px;font-family:BebasNeue-Regular, Bebas Neue;}.cls-3{letter-spacing:-0.01em;}.cls-4{letter-spacing:0em;}.cls-5{letter-spacing:-0.07em;}.cls-6{letter-spacing:0em;}.cls-7{letter-spacing:0.01em;}</style></defs><g id="pzZkqU"><path class="cls-1" d="M93.12,24.76h7.59a6.09,6.09,0,0,0,1.1.21,60.6,60.6,0,0,1,13.76,2.21,69.13,69.13,0,0,1,36.14,23.15A65.31,65.31,0,0,1,165.9,81.06a66.5,66.5,0,0,1,.57,18.84,62.71,62.71,0,0,1-6.09,21c-2.2,4.5-4.52,9-6.62,13.51q-10.87,23.58-21.62,47.2l-14.46,31.58q-9.18,20.07-18.35,40.15c-.81,1.77-1.54,3.59-2.3,5.38H96.8a1.28,1.28,0,0,0-.07-.34q-7.65-16.74-15.29-33.5Q70,199.71,58.57,174.52q-8.39-18.42-16.79-36.84c-1.77-3.89-3.31-7.93-5.4-11.62A67,67,0,0,1,27.25,95a64.22,64.22,0,0,1,6.86-32A67.23,67.23,0,0,1,48.94,43.33,70.49,70.49,0,0,1,89.28,25.22C90.56,25.1,91.84,24.92,93.12,24.76Zm3.9,97.4c15.55.15,28.69-13,28.76-29.72s-12.81-30-29-29.88c-15.68.13-28.39,13.1-28.46,29.76C68.22,109.2,81.55,122.31,97,122.16Z"/></g><text class="cls-2" transform="translate(228.61 116.98) scale(0.96 1)">17 <tspan class="cls-3" x="77.76" y="0">O</tspan><tspan x="109.67" y="0">&apos;Rior</tspan><tspan class="cls-4" x="238.13" y="0">d</tspan><tspan x="270.86" y="0">an Stree</tspan><tspan class="cls-5" x="501.95" y="0">t</tspan><tspan x="525.52" y="0">, </tspan><tspan x="-22.11" y="97.2">Al</tspan><tspan class="cls-6" x="38.23" y="97.2">ex</tspan><tspan x="100.84" y="97.2">andri</tspan><tspan class="cls-7" x="248.99" y="97.2">a</tspan><tspan x="282.28" y="97.2">, NSW 2015</tspan></text></svg>