<svg id="Layer_1" data-name="Layer 1" xmlns="http://www.w3.org/2000/svg" viewBox="0 0 850.39 283.46"><defs><style>.cls-1,.cls-2{fill:#fff;}.cls-2{font-size:76px;font-family:BebasNeue-Regular, Bebas Neue;}.cls-3{letter-spacing:0em;}.cls-4{letter-spacing:-0.05em;}.cls-5{letter-spacing:0em;}.cls-6{letter-spacing:-0.02em;}.cls-7{letter-spacing:-0.02em;}.cls-8{letter-spacing:0.01em;}.cls-9{letter-spacing:-0.01em;}</style></defs><g id="HxAGga"><path class="cls-1" d="M14.12,148.47V137a11.08,11.08,0,0,0,.22-1.26,115.33,115.33,0,0,1,6.91-33.93C31.7,73.58,49.81,52.26,75.69,38.34c23.68-12.73,48.76-16,74.84-10.32a108,108,0,0,1,55.16,30.8q28.74,29.4,33.37,71.12c.27,2.36.47,4.72.71,7.08v11.45c-.08.42-.18.84-.22,1.26-.24,2.59-.4,5.19-.72,7.76C235.93,181,227,201.85,212,219.64c-19.92,23.52-45,37-75.13,40a103.58,103.58,0,0,1-41.27-4.19c-26.83-8.33-47.92-24.78-63.26-49a116.53,116.53,0,0,1-17.48-50.93C14.57,153.11,14.35,150.79,14.12,148.47Zm216-5.67c0-59.12-46.27-107.33-103.09-107.38C69.47,35.37,22.6,84.7,23.79,145c1.13,57.77,46.64,105,103.15,105.07C183.85,250.1,230.05,202.05,230.08,142.8Z"/><path class="cls-1" d="M128.59,88q31.08,0,62.16,0c5.81,0,10.32,3,12.23,8.35a18.88,18.88,0,0,1,1,6.21c.07,22.32,0,44.64,0,67,0,4.68.05,9.36,0,14-.06,6.26-3.22,11.24-8.47,13.14a13.68,13.68,0,0,1-4.54.75q-62.42.06-124.83,0c-7.56,0-12.93-5.84-12.94-14q0-34.33,0-68.65c0-4.69-.06-9.37,0-14A13.1,13.1,0,0,1,63.68,88.22,19.31,19.31,0,0,1,67.17,88ZM69.08,97.75c.33.37.5.59.7.78Q95,122.46,120.2,146.34a43.47,43.47,0,0,0,6.23,4.53,3.81,3.81,0,0,0,4.31,0,46.63,46.63,0,0,0,6.53-4.76q25.14-23.7,50.14-47.55c.22-.21.39-.48.69-.84Zm.24,90h118.6l-39.1-37.21c-2.11,2-4.18,3.79-6.12,5.74-7.43,7.45-20.87,7.59-28.47-.28-1.83-1.89-3.82-3.6-5.8-5.47Zm32.39-44.51-39-36.67v74.36Zm92.84-36.68-39,36.68,39,37.71Z"/></g><text class="cls-2" transform="translate(270.57 170.52) scale(0.96 1)"><tspan class="cls-3">C</tspan><tspan x="29.26" y="0">on</tspan><tspan class="cls-4" x="92.11" y="0">t</tspan><tspan class="cls-5" x="116.28" y="0">a</tspan><tspan x="146.6" y="0">c</tspan><tspan class="cls-6" x="175.71" y="0">t</tspan><tspan class="cls-7" x="201.47" y="0">@</tspan><tspan class="cls-5" x="253.23" y="0">a</tspan><tspan x="283.55" y="0">cr</tspan><tspan class="cls-8" x="343.29" y="0">l</tspan><tspan class="cls-9" x="370.19" y="0">.</tspan><tspan class="cls-3" x="384.02" y="0">c</tspan><tspan x="413.28" y="0">om</tspan><tspan class="cls-8" x="484.57" y="0">.</tspan><tspan class="cls-5" x="499.62" y="0">a</tspan><tspan x="529.94" y="0">u</tspan></text></svg>