<svg id="Layer_1" data-name="Layer 1" xmlns="http://www.w3.org/2000/svg" viewBox="0 0 566.93 283.46"><defs><style>.cls-1,.cls-2{fill:#fff;}.cls-2{font-size:50px;font-family:BebasNeue-Regular, Bebas Neue;}.cls-3{letter-spacing:0em;}.cls-4{letter-spacing:-0.05em;}.cls-5{letter-spacing:0em;}.cls-6{letter-spacing:-0.02em;}.cls-7{letter-spacing:-0.01em;}.cls-8{letter-spacing:0.01em;}.cls-9{letter-spacing:-0.01em;}.cls-10{letter-spacing:0em;}</style></defs><g id="pzZkqU"><path class="cls-1" d="M83.35,55h6.33a5.61,5.61,0,0,0,.91.17A52.28,52.28,0,0,1,102.06,57a58,58,0,0,1,30.13,18.6,51.74,51.74,0,0,1,12.3,39.83,49.21,49.21,0,0,1-5.07,16.86c-1.84,3.62-3.78,7.2-5.53,10.86-6,12.63-12,25.28-18,37.93q-6,12.69-12,25.37-7.67,16.13-15.3,32.26c-.68,1.43-1.28,2.89-1.92,4.33h-.19a1.18,1.18,0,0,0-.06-.27Q80,229.28,73.61,215.83q-9.54-20.22-19.06-40.45-7-14.82-14-29.61c-1.48-3.12-2.76-6.37-4.51-9.33a52.5,52.5,0,0,1-7.6-25,51.07,51.07,0,0,1,.86-12,52.32,52.32,0,0,1,4.85-13.76A54.3,54.3,0,0,1,46.53,70,59.84,59.84,0,0,1,80.15,55.41C81.22,55.31,82.28,55.16,83.35,55ZM86.6,133.3a23.95,23.95,0,1,0-23.95-24A23.92,23.92,0,0,0,86.6,133.3Z"/></g><text class="cls-2" transform="translate(174.03 157.48)"><tspan class="cls-3">C</tspan><tspan x="19.25" y="0">on</tspan><tspan class="cls-4" x="60.6" y="0">t</tspan><tspan class="cls-5" x="76.5" y="0">a</tspan><tspan x="96.45" y="0">c</tspan><tspan class="cls-6" x="115.6" y="0">t</tspan><tspan class="cls-7" x="132.55" y="0">@</tspan><tspan class="cls-5" x="166.6" y="0">a</tspan><tspan x="186.55" y="0">cr</tspan><tspan class="cls-8" x="225.85" y="0">l</tspan><tspan class="cls-9" x="243.55" y="0">.</tspan><tspan class="cls-3" x="252.65" y="0">c</tspan><tspan x="271.89" y="0">om</tspan><tspan class="cls-8" x="318.79" y="0">.</tspan><tspan class="cls-10" x="328.69" y="0">a</tspan><tspan x="348.64" y="0">u</tspan></text></svg>