<svg id="Layer_1" data-name="Layer 1" xmlns="http://www.w3.org/2000/svg" viewBox="0 0 1700.79 566.93"><defs><style>.cls-1,.cls-2{fill:#fff;}.cls-2{font-size:200px;font-family:BebasNeue-Regular, Bebas Neue;}</style></defs><g id="ZyxOoA.tif"><path class="cls-1" d="M563,284.51C558.57,433.68,445,549,296.4,548.49c-150-.49-265.23-118-264.25-266.61,1-149.49,118-264.26,266.33-263.44C448.17,19.28,559.86,136.35,563,284.51ZM296.87,49.94C168.48,50.28,63.63,155.27,63.65,283.5S168.57,516.71,296.94,517,531.4,411.12,530.69,282.9C530,154.26,425,49.61,296.87,49.94Z"/><path class="cls-1" d="M202,136.33c16.77,29,33.13,57.36,49.79,86.22-15.4,11.94-17.64,28.42-14.75,45.83,5.43,32.7,20.38,60.6,45.1,82.84,14.2,12.77,30.38,19.29,50.52,11.44q24.88,43.09,49.46,85.7C353.68,468,332.86,468.47,305.5,450c-35.34-23.88-61.28-56.58-84-92-26.45-41.2-47.17-85-56.73-133.42-1.05-5.29-1.65-10.68-2.2-16.05C158.66,170.4,166.61,155.6,202,136.33Z"/><path class="cls-1" d="M397.14,448.62c-4.64-4.05-9-6.33-11.1-9.91-15.41-26-30.39-52.23-45.46-78.42-4.14-7.2-2.57-13.22,4.45-17.52,7.37-4.5,14.93-8.68,22.4-13s13.46-1.82,17.4,4.9c15.44,26.38,30.73,52.87,45.58,79.59,1.77,3.19,2.27,10.33.38,11.78C420.42,434,409.12,440.78,397.14,448.62Z"/><path class="cls-1" d="M244.27,101.13c4.66,4,9.07,6.18,11.19,9.76,15.4,26,30.31,52.3,45.47,78.45,4.25,7.35,2.56,13.24-4.29,17.55-7.3,4.59-14.86,8.8-22.42,13-7.25,4-13.33,2.33-17.46-4.77-15.37-26.44-30.77-52.88-45.67-79.58-1.77-3.17-2.29-10.27-.43-11.71C221,115.82,232.3,109,244.27,101.13Z"/></g><text class="cls-2" transform="translate(821.13 369.08)">13 14 95</text></svg>