<svg id="Layer_1" data-name="Layer 1" xmlns="http://www.w3.org/2000/svg" viewBox="0 0 566.93 283.46"><defs><style>.cls-1,.cls-2{fill:#fff;}.cls-2{font-size:100px;font-family:BebasNeue-Regular, Bebas Neue;}</style></defs><g id="ZyxOoA.tif"><path class="cls-1" d="M203.1,142.09c-1.54,51.44-40.69,91.19-91.93,91-51.71-.17-91.45-40.68-91.12-91.92.34-51.55,40.7-91.12,91.83-90.83C163.49,50.64,202,91,203.1,142.09ZM111.33,61.22c-44.27.11-80.42,36.31-80.41,80.52s36.17,80.41,80.43,80.51,80.84-36.5,80.6-80.71S155.49,61.1,111.33,61.22Z"/><path class="cls-1" d="M78.62,91c5.79,10,11.43,19.78,17.17,29.73-5.31,4.12-6.08,9.8-5.08,15.8a47.92,47.92,0,0,0,15.55,28.56c4.89,4.41,10.47,6.66,17.42,3.95q8.56,14.86,17,29.55c-9.81,6.76-17,6.93-26.43.56-12.18-8.23-21.13-19.51-29-31.71-9.11-14.2-16.26-29.3-19.56-46-.36-1.82-.57-3.68-.76-5.54C63.68,102.75,66.41,97.65,78.62,91Z"/><path class="cls-1" d="M145.9,198.68c-1.6-1.4-3.09-2.18-3.83-3.42-5.31-9-10.48-18-15.67-27-1.43-2.48-.89-4.56,1.53-6s5.15-3,7.73-4.49,4.64-.63,6,1.69c5.33,9.1,10.6,18.23,15.72,27.44.61,1.1.78,3.56.13,4.06C153.93,193.64,150,196,145.9,198.68Z"/><path class="cls-1" d="M93.19,78.87c1.61,1.36,3.13,2.13,3.86,3.36,5.31,9,10.45,18,15.68,27.05,1.46,2.53.88,4.56-1.48,6-2.52,1.58-5.13,3-7.73,4.48s-4.6.8-6-1.65C92.2,109,86.89,99.93,81.75,90.72c-.61-1.09-.79-3.54-.15-4C85.18,83.93,89.06,81.58,93.19,78.87Z"/></g><text class="cls-2" transform="translate(222.66 179.74)">13 14 95</text></svg>