<svg id="Layer_1" data-name="Layer 1" xmlns="http://www.w3.org/2000/svg" viewBox="0 0 1700.79 566.93"><defs><style>.cls-1,.cls-2{fill:#fff;}.cls-2{font-size:200px;font-family:BebasNeue-Regular, Bebas Neue;}</style></defs><g id="ZyxOoA.tif"><path class="cls-1" d="M531.79,284.45c-4,140.3-107,248.75-241.79,248.29C154,532.27,49.49,421.77,50.38,282c.89-140.61,107-248.56,241.51-247.78C427.63,35,528.92,145.09,531.79,284.45ZM290.43,63.82C174,64.14,78.93,162.89,78.94,283.5s95.14,219.35,211.55,219.61,212.61-99.58,212-220.18C501.82,161.94,406.57,63.51,290.43,63.82Z"/><path class="cls-1" d="M204.42,145.08c15.21,27.31,30,53.94,45.15,81.09-14,11.23-16,26.73-13.38,43.11,4.93,30.75,18.49,57,40.9,77.91,12.88,12,27.55,18.15,45.82,10.76q22.54,40.55,44.85,80.61c-25.81,18.44-44.7,18.92-69.5,1.54-32.05-22.46-55.58-53.22-76.17-86.5-24-38.76-42.78-79.93-51.44-125.49-1-5-1.5-10.05-2-15.1C165.1,177.12,172.3,163.2,204.42,145.08Z"/><path class="cls-1" d="M381.36,438.8c-4.21-3.8-8.14-5.95-10.07-9.32-14-24.44-27.56-49.12-41.23-73.76-3.75-6.77-2.33-12.43,4.05-16.48,6.67-4.23,13.53-8.16,20.3-12.24s12.21-1.72,15.78,4.61c14,24.81,27.87,49.73,41.34,74.86,1.61,3,2.05,9.72.34,11.08C402.47,425.05,392.22,431.43,381.36,438.8Z"/><path class="cls-1" d="M242.74,112c4.22,3.73,8.22,5.81,10.14,9.17,14,24.46,27.49,49.19,41.23,73.79,3.86,6.92,2.32,12.45-3.88,16.51-6.63,4.32-13.48,8.28-20.33,12.21-6.59,3.78-12.1,2.19-15.84-4.49-13.94-24.87-27.9-49.73-41.41-74.85-1.61-3-2.08-9.66-.39-11C221.65,125.79,231.87,119.38,242.74,112Z"/></g><text class="cls-2" transform="translate(792.75 343.29) scale(0.96 1)">13 14 95</text></svg>