<svg id="Layer_1" data-name="Layer 1" xmlns="http://www.w3.org/2000/svg" viewBox="0 0 566.93 283.46"><defs><style>.cls-1,.cls-2{fill:#fff;}.cls-2{font-size:48px;font-family:BebasNeue-Regular, Bebas Neue;}.cls-3{letter-spacing:-0.01em;}.cls-4{letter-spacing:0em;}.cls-5{letter-spacing:0em;}.cls-6{letter-spacing:-0.07em;}.cls-7{letter-spacing:0em;}.cls-8{letter-spacing:0em;}.cls-9{letter-spacing:0.01em;}</style></defs><g id="HxAGga"><path class="cls-1" d="M12.91,146.4v-9.3a8.87,8.87,0,0,0,.18-1,91.37,91.37,0,0,1,5.83-27.57c8.81-23,24.07-40.28,45.89-51.58,20-10.34,41.1-13,63.07-8.39a92,92,0,0,1,46.5,25,94,94,0,0,1,28.13,57.78c.22,1.92.39,3.84.59,5.76v9.3c-.06.34-.15.68-.18,1-.21,2.1-.34,4.21-.61,6.3a92.74,92.74,0,0,1-22.66,50.5c-16.79,19.11-37.91,30.05-63.32,32.47a90.47,90.47,0,0,1-34.78-3.4c-22.62-6.78-40.39-20.14-53.33-39.86a92.41,92.41,0,0,1-14.73-41.39C13.29,150.17,13.11,148.29,12.91,146.4Zm182-4.6c0-48-39-87.21-86.9-87.25-48.48,0-88,40-87,89C22,190.52,60.38,228.93,108,229,156,229,194.91,189.94,194.94,141.8Z"/><path class="cls-1" d="M109.39,97.27q26.21,0,52.4,0c4.89,0,8.69,2.42,10.3,6.78a14.88,14.88,0,0,1,.85,5q.08,27.2,0,54.4c0,3.81,0,7.61,0,11.41-.05,5.09-2.72,9.13-7.13,10.68a11.86,11.86,0,0,1-3.83.61q-52.62,0-105.22,0c-6.37,0-10.9-4.74-10.91-11.35q0-27.88,0-55.78c0-3.8,0-7.61,0-11.41a10.74,10.74,0,0,1,8.78-10.23,17,17,0,0,1,2.94-.17Zm-50.15,7.92c.27.3.42.48.59.64q21.23,19.44,42.49,38.85a37.93,37.93,0,0,0,5.25,3.67,3.3,3.3,0,0,0,3.63,0,38.84,38.84,0,0,0,5.51-3.86q21.18-19.26,42.26-38.64a6.79,6.79,0,0,0,.58-.68Zm.2,73.09h100l-32.95-30.23c-1.78,1.6-3.53,3.08-5.17,4.67-6.26,6.05-17.58,6.17-24-.23-1.54-1.54-3.22-2.93-4.89-4.44C81.43,158.1,70.53,168.11,59.44,178.28Zm27.3-36.16-32.88-29.8v60.43ZM165,112.32l-32.89,29.8L165,172.76Z"/></g><text class="cls-2" transform="translate(213.19 101.4)">17 <tspan class="cls-3" x="46.08" y="0">O</tspan><tspan class="cls-4" x="64.99" y="0">&apos;Rior</tspan><tspan class="cls-5" x="141.12" y="0">d</tspan><tspan x="160.51" y="0">an Stree</tspan><tspan class="cls-6" x="297.45" y="0">t</tspan><tspan x="311.42" y="0">, </tspan><tspan x="65.52" y="57.6">Al</tspan><tspan class="cls-7" x="101.28" y="57.6">ex</tspan><tspan class="cls-8" x="138.38" y="57.6">andri</tspan><tspan class="cls-9" x="226.17" y="57.6">a</tspan><tspan x="245.9" y="57.6">,</tspan><tspan x="81.6" y="115.2" xml:space="preserve"> NSW 2015</tspan></text></svg>