<svg id="Layer_1" data-name="Layer 1" xmlns="http://www.w3.org/2000/svg" viewBox="0 0 1700.79 566.93"><defs><style>.cls-1,.cls-2{fill:#fff;}.cls-2{font-size:100px;font-family:BebasNeue-Regular, Bebas Neue;}.cls-3{letter-spacing:-0.01em;}.cls-4{letter-spacing:0em;}.cls-5{letter-spacing:-0.07em;}.cls-6{letter-spacing:0em;}.cls-7{letter-spacing:0.01em;}</style></defs><g id="pzZkqU"><path class="cls-1" d="M279.54,26.08H296a15.25,15.25,0,0,0,2.37.46,131.49,131.49,0,0,1,29.81,4.77c31,8.41,57.36,24.8,78.28,50.15A141.47,141.47,0,0,1,437.19,148a144.18,144.18,0,0,1,1.24,40.79,135.66,135.66,0,0,1-13.19,45.45c-4.77,9.76-9.8,19.4-14.35,29.27q-23.53,51.06-46.82,102.24l-31.32,68.4q-19.89,43.49-39.75,87c-1.75,3.84-3.33,7.77-5,11.66h-.5a3,3,0,0,0-.15-.74q-16.55-36.29-33.11-72.56-24.81-54.51-49.55-109-18.15-39.92-36.36-79.82c-3.84-8.42-7.16-17.16-11.71-25.15-11.83-20.85-18.88-43-19.76-67.3a138.9,138.9,0,0,1,14.85-69.37A145.57,145.57,0,0,1,183.85,66.3a152.69,152.69,0,0,1,87.37-39.23C274,26.82,276.77,26.42,279.54,26.08Zm8.45,211c33.69.34,62.16-28.19,62.3-64.36.15-36-27.75-65-62.88-64.73-34,.27-61.5,28.36-61.65,64.45C225.61,209,254.48,237.37,288,237.05Z"/></g><text class="cls-2" transform="translate(535.26 264.91) scale(0.96 1)">17 <tspan class="cls-3" x="96" y="0">O</tspan><tspan x="135.4" y="0">&apos;Rior</tspan><tspan class="cls-4" x="293.99" y="0">d</tspan><tspan x="334.39" y="0">an Stree</tspan><tspan class="cls-5" x="619.69" y="0">t</tspan><tspan x="648.79" y="0">, Al</tspan><tspan class="cls-6" x="758.08" y="0">ex</tspan><tspan x="835.38" y="0">andri</tspan><tspan class="cls-7" x="1018.28" y="0">a</tspan><tspan x="1059.37" y="0">, </tspan><tspan x="383.29" y="120">NSW 2015</tspan></text></svg>