<svg id="Layer_1" data-name="Layer 1" xmlns="http://www.w3.org/2000/svg" viewBox="0 0 1700.79 566.93"><defs><style>.cls-1,.cls-2{fill:#fff;}.cls-2{font-size:100px;font-family:BebasNeue-Regular, Bebas Neue;}.cls-3{letter-spacing:-0.01em;}.cls-4{letter-spacing:0em;}.cls-5{letter-spacing:-0.07em;}.cls-6{letter-spacing:0em;}.cls-7{letter-spacing:0.01em;}</style></defs><g id="pzZkqU"><path class="cls-1" d="M288.77,26.08h17.06a16.26,16.26,0,0,0,2.47.46,141.09,141.09,0,0,1,30.92,4.77c32.18,8.41,59.49,24.8,81.2,50.15a139.26,139.26,0,0,1,33.17,107.37,132.18,132.18,0,0,1-13.68,45.45c-5,9.76-10.17,19.4-14.89,29.27q-24.42,51.06-48.57,102.24Q360.22,400,344,434.19q-20.62,43.49-41.23,87c-1.82,3.84-3.46,7.77-5.18,11.66H297a3.47,3.47,0,0,0-.15-.74q-17.17-36.29-34.36-72.56-25.72-54.51-51.39-109-18.82-39.92-37.72-79.82c-4-8.42-7.43-17.16-12.14-25.15-12.28-20.85-19.59-43-20.5-67.3A137.76,137.76,0,0,1,143.11,146a140.41,140.41,0,0,1,13.07-37.11A146.2,146.2,0,0,1,189.51,66.3a155.33,155.33,0,0,1,50.74-30.11,157.57,157.57,0,0,1,39.9-9.12C283,26.82,285.89,26.42,288.77,26.08Zm8.77,211c34.94.34,64.47-28.19,64.63-64.36a64.6,64.6,0,1,0-64.63,64.36Z"/></g><text class="cls-2" transform="translate(554.04 255.15)">17 <tspan class="cls-3" x="96" y="0">O</tspan><tspan x="135.4" y="0">&apos;Rior</tspan><tspan class="cls-4" x="293.99" y="0">d</tspan><tspan x="334.39" y="0">an Stree</tspan><tspan class="cls-5" x="619.69" y="0">t</tspan><tspan x="648.79" y="0">, Al</tspan><tspan class="cls-6" x="758.08" y="0">ex</tspan><tspan x="835.38" y="0">andri</tspan><tspan class="cls-7" x="1018.28" y="0">a</tspan><tspan x="1059.37" y="0">, </tspan><tspan x="383.29" y="120">NSW 2015</tspan></text></svg>