<svg id="Layer_1" data-name="Layer 1" xmlns="http://www.w3.org/2000/svg" viewBox="0 0 850.39 283.46"><defs><style>.cls-1,.cls-2{fill:#fff;}.cls-2{font-size:145px;font-family:BebasNeue-Regular, Bebas Neue;}</style></defs><g id="ZyxOoA.tif"><path class="cls-1" d="M240.17,138.24c-1.91,66-50.33,117-113.71,116.76-64-.22-113.11-52.19-112.69-117.93C14.19,71,64.1,20.18,127.35,20.55,191.18,20.92,238.82,72.7,240.17,138.24ZM126.66,34.48C71.9,34.63,27.19,81.07,27.2,137.79S71.94,241,126.69,241.07s100-46.83,99.68-103.55C226.07,80.62,181.28,34.33,126.66,34.48Z"/><path class="cls-1" d="M86.21,72.69c7.15,12.85,14.13,25.37,21.23,38.14-6.57,5.28-7.52,12.57-6.29,20.27a62.22,62.22,0,0,0,19.24,36.64c6,5.65,13,8.54,21.54,5.07L163,210.71c-12.13,8.67-21,8.9-32.68.73-15.07-10.56-26.14-25-35.82-40.68-11.28-18.23-20.12-37.59-24.19-59-.45-2.34-.71-4.72-.94-7.1C67.72,87.76,71.11,81.22,86.21,72.69Z"/><path class="cls-1" d="M169.42,210.83c-2-1.79-3.82-2.8-4.73-4.39-6.57-11.49-13-23.1-19.39-34.68-1.77-3.19-1.1-5.85,1.9-7.75s6.36-3.84,9.55-5.76,5.74-.81,7.42,2.16q9.89,17.52,19.44,35.21c.75,1.41,1,4.57.16,5.21C179.35,204.36,174.53,207.36,169.42,210.83Z"/><path class="cls-1" d="M104.23,57.12c2,1.76,3.87,2.74,4.77,4.32,6.57,11.5,12.93,23.13,19.39,34.7,1.81,3.25,1.09,5.85-1.83,7.76-3.11,2-6.34,3.89-9.56,5.74s-5.68,1-7.45-2.11C103,95.84,96.43,84.15,90.08,72.33c-.76-1.4-1-4.54-.18-5.17C94.31,63.62,99.12,60.61,104.23,57.12Z"/></g><text class="cls-2" transform="translate(307.12 192.71) scale(0.96 1)">13 14 95</text></svg>