<svg id="Layer_1" data-name="Layer 1" xmlns="http://www.w3.org/2000/svg" viewBox="0 0 1134.4 1133.86"><defs><style>.cls-1{fill:#de0000;}</style></defs><g id="D3PiIt"><path class="cls-1" d="M197.23,395c63.8,0,127.59-.07,191.38.12,5.28,0,6.72-1.23,6.71-6.65Q395.06,198,395,7.62C395,1.31,396.64,0,402.76,0Q567.07.3,731.39,0c5.7,0,7.43,1.21,7.42,7.25q-.3,190.08-.3,380.17c0,6.23,1.47,7.68,7.67,7.67q190.41-.3,380.82-.27c5.3,0,7.14.77,7.13,6.77q-.35,165.28,0,330.56c0,5.78-1.49,6.92-7,6.91q-190.41-.26-380.82-.28c-6.1,0-7.77,1.28-7.76,7.62q.32,190.08.31,380.17c0,6-1.67,7.26-7.4,7.25q-164.31-.25-328.62,0c-6.06,0-7.77-1.2-7.76-7.57q.33-190.08.31-380.17c0-6-1.61-7.31-7.4-7.3q-190.41.25-380.82.25c-5.69,0-7.39-1.17-7.38-7.2q.3-165,0-329.91c0-6.13,1.85-7.14,7.42-7.12C70.51,395,133.87,395,197.23,395Z" transform="translate(0.27 0)"/></g></svg>