<svg id="Layer_1" data-name="Layer 1" xmlns="http://www.w3.org/2000/svg" viewBox="0 0 1417.32 1417.32"><defs><style>.cls-1{fill:#02589e;}.cls-2{fill:#e2e3e5;}.cls-3{fill:#fdfdfd;}</style></defs><g id="UZsqjs"><path class="cls-1" d="M50.69,766.24c-14.59-143.64,4-281.54,77.53-407.86,104.14-179,255.9-288.64,464.24-319.07,164.63-24,317.19,1.11,456.78,93.25,160,105.59,251.51,256,286.61,442.6q1.37,5,2.72,10l3.66,48.94c-.42,7.32-1.35,14.66-1.19,22,4.58,205.44-72.69,375.16-226.4,509.61-57.09,49.93-119.86,92.81-195.69,111.18,0-123-.14-245.91.21-368.86.09-33-10.51-75.93,6-96.11,17.55-21.42,62.24-4.69,95-7,4.9-.34,9.94-.7,14.74.06,19.27,3,24.76-6,26.64-24.24,4.42-42.7,10.61-85.27,17.54-127.65,2.79-17-5.33-18.28-18.11-18.19-39.35.27-78.72-.43-118.06.33-15.83.31-25.25-1.58-24.33-21.37,1.53-33.12-.58-66.41.71-99.55,1.43-37,35-66,70.23-55.86,26.5,7.63,49.62.93,74.51-.79,17.42-1.21,19.86-8.43,19.64-22.72-.54-35.65-1.09-71.35.2-107,.72-19.93-7.12-25.11-25.83-24.58-41.79,1.18-83.69-1.12-125.42.81-107.1,4.94-182.69,83.35-184.68,190.31-.71,38.11-1,76.26.21,114.34.62,19.57-6.45,25.8-25.56,25-30.69-1.27-61.5.35-92.21-.59-17-.52-24.09,4.48-23.6,22.72,1.13,41.77.77,83.6.17,125.4-.22,15.7,5.45,21.79,21.48,21.32,30.72-.91,61.53.79,92.21-.62,20.65-.94,27.72,5.61,27.57,27-1.16,163.51-1.22,327-1.62,490.53-215.71,12.43-397-60-541.67-221C119.74,1003.67,74.14,890,50.69,766.24Z"/><path class="cls-2" d="M919,1276.81c75.83-18.37,138.6-61.25,195.69-111.18,153.71-134.45,231-304.17,226.4-509.61-.16-7.3.77-14.64,1.19-22,21.59,16.58,21.07,40.3,19.72,63.71-11.49,199.1-83.12,371.24-233.87,505.11C1029.2,1290.68,913.41,1351.82,781,1361c-182.76,12.6-352.25-31.67-498.93-149.26C150.66,1106.35,76.19,969,43.26,806.53c-2.8-13.79-8.06-29.3,7.43-40.29C74.14,890,119.74,1003.67,204.92,1098.52c144.65,161.08,326,233.46,541.67,221C805,1309.3,865.81,1308.44,919,1276.81Z"/><path class="cls-2" d="M1338.57,585.12q-1.36-5-2.72-10Q1337.22,580.14,1338.57,585.12Z"/><path class="cls-3" d="M919,1276.81c-53.14,31.63-113.92,32.49-172.36,42.74.4-163.51.46-327,1.62-490.53.15-21.37-6.92-27.92-27.57-27-30.68,1.41-61.49-.29-92.21.62-16,.47-21.7-5.62-21.48-21.32.6-41.8,1-83.63-.17-125.4-.49-18.24,6.63-23.24,23.6-22.72,30.71.94,61.52-.68,92.21.59,19.11.79,26.18-5.44,25.56-25-1.21-38.08-.92-76.23-.21-114.34,2-107,77.58-185.37,184.68-190.31,41.73-1.93,83.63.37,125.42-.81,18.71-.53,26.55,4.65,25.83,24.58-1.29,35.61-.74,71.31-.2,107,.22,14.29-2.22,21.51-19.64,22.72-24.89,1.72-48,8.42-74.51.79-35.28-10.15-68.8,18.87-70.23,55.86-1.29,33.14.82,66.43-.71,99.55-.92,19.79,8.5,21.68,24.33,21.37,39.34-.76,78.71-.06,118.06-.33,12.78-.09,20.9,1.19,18.11,18.19-6.93,42.38-13.12,85-17.54,127.65-1.88,18.2-7.37,27.27-26.64,24.24-4.8-.76-9.84-.4-14.74-.06-32.74,2.29-77.43-14.44-95,7-16.53,20.18-5.93,63.16-6,96.11C918.81,1030.9,919,1153.86,919,1276.81Z"/></g></svg>