<svg id="Layer_1" data-name="Layer 1" xmlns="http://www.w3.org/2000/svg" viewBox="0 0 1417.32 1417.32"><defs><style>.cls-1{fill:#8cc4fc;}.cls-2{fill:#fff;}</style></defs><g id="ZxnvkP.tif"><path class="cls-1" d="M1306.56,683.37l-.38.17-.42,0c-2.63-4.59-2.63-25.62,0-30.2a.79.79,0,0,1,.8.11Z"/></g><g id="ep14Zb.tif"><path class="cls-2" d="M708.25,61.49c362.72-.77,656.44,292.33,658.16,656.77,1.71,362.9-293.12,658.45-657.34,659-363.64.51-658.59-294.43-658.16-658.13S344.35,62.27,708.25,61.49ZM319,1006.09c3.07,3.39,3.6,4.24,4.35,4.74q3.69,2.45,7.52,4.66c110.65,63.66,228.54,79.82,352.33,51.5,228-52.16,354-261.42,356.65-449.36.29-21.13,4.54-35.79,22.37-49.57,19.58-15.14,34.76-36,51.68-54.5,2.28-2.5,3.56-5.91,5.25-8.82l-83.72,22.74-1.68-3.86c30.29-21.69,53.38-48.73,66-86.81-5.87,2.81-9.55,4.9-13.46,6.4-24.75,9.5-49.6,18.73-74.29,28.37-10.87,4.24-18.44,1.59-27.54-6.26-48.76-42-104.94-53.82-165.49-32.31C759,454.3,722.08,498,711.55,561.08c-3.48,20.82-.55,42.71-.55,65.51-138.26-9.5-250.54-68-340.49-172.68-21,39.08-27,77.95-17.95,119.2,9.14,41.48,32.5,73.8,65.77,99.92l-2.51,3.75-69.15-19.42C352,740.8,395.73,793.57,474.29,822H404.78c28.42,71.17,78.58,108.14,154.3,115.8C486.32,992,408.11,1013.51,319,1006.09Z"/></g></svg>