<svg id="Layer_1" data-name="Layer 1" xmlns="http://www.w3.org/2000/svg" viewBox="0 0 1417.32 1417.32"><defs><style>.cls-1{fill:#d2009b;}.cls-2{fill:#ffab00;}.cls-3{fill:#d50093;}.cls-4{fill:#d90082;}.cls-5{fill:#ff9d00;}.cls-6{fill:#ff8b00;}.cls-7{fill:#f80;}.cls-8{fill:#ff9f00;}.cls-9{fill:#fa0000;}.cls-10{fill:#e4006e;}.cls-11{fill:#ea0062;}.cls-12{fill:#ff6700;}.cls-13{fill:#ff4e00;}.cls-14{fill:#e1005c;}.cls-15{fill:#ff6705;}.cls-16{fill:#ed0025;}.cls-17{fill:#f02251;}.cls-18{fill:#f53a3e;}.cls-19{fill:#f94f2b;}.cls-20{fill:#d7008c;}.cls-21{fill:#e10073;}.cls-22{fill:#dc007e;}.cls-23{fill:red;}.cls-24{fill:#e40065;}.cls-25{fill:#ff1300;}.cls-26{fill:#f2002a;}.cls-27{fill:#ff4b00;}.cls-28{fill:#ff3400;}.cls-29{fill:#fc0000;}.cls-30{fill:#df0070;}.cls-31{fill:#e4005d;}.cls-32{fill:#ff1a00;}</style></defs><g id="_0jOjex" data-name="0jOjex"><path class="cls-1" d="M1370.31,460c3.82,28.64,2.85,57.51,3.1,86.24.83,92.6.48,185.23.55,277.84a59.39,59.39,0,0,1-.7,6.48l-1.81-1.18c-.36-.61-.72-1.23-1.09-1.84-2.34-17.79-.9-35.66-1-53.49-.34-61.18,3.41-122.33,1.92-183.53,0-1.49.32-2.94.24-4.42-.66,39.73.4,79.48-.77,119.21-9,.14-7.8-6.9-7.88-12.17-.37-24.35-.11-48.71-.18-73.06,0-5.07.41-10.2-1.39-15.12-1.44-14.42-.72-28.88-.51-43.33,2.78-24.32,3.28-48.59-1.84-72.7-.11-8-2.13-15.9-1.42-24,.06-.72.29-1.7-.1-2.14-9.26-10.6-4-23.7-6.17-35.49-1.07-5.75-2.72-10.84-6.51-15.83-6.21-8.17-5.14-18.83-5.53-28.43-.36-8.83-1.81-15.06-10.69-19.15-8.39-3.86-13.47-10.58-11.89-21.12,1.36-9.09-3.3-14.89-11.88-18.53-12.89-5.46-23.13-13.76-25.67-28.76-1-5.73-4.64-9.89-9.06-13.26-6.17-4.7-9.84-10.53-10.23-18.44-.34-7-2.32-11.71-11.37-10.41-7.55,1.08-12.46-4.28-14-11.24-2-9.1-5-14.38-15.49-9.29-5.47,2.65-9.74-1.31-13.46-4.93-4.36-4.25-8.74-6.79-15.51-5.85-7.6,1-9.33-2.84-5.45-10.12,4.57-8.57,4-10.43-5.35-9.84-15.68,1-27.67-4.63-37-16.85a29.12,29.12,0,0,0-4.87-4.39c-11.79-9.66-14.17-9.12-20.23,4.68a6.67,6.67,0,0,1-2.73,2.14,27,27,0,0,1-13,.72c-5.24-.8-7.43-3.75-6.83-9.19,1.07-9.68-1.89-14.77-11-15.78-10-1.1-19-2.47-26.87-9.9-4.63-4.37-12.37-1.87-18.79-3.81-24.14-7.28-47.09-17.68-71-25.54-2.77-.91-5.79-2.74-8.45-1.87-11.47,3.76-21.95-.31-33-2.27-8-1.42-15.54-1.49-21.56-8-2.91-3.13-7.38-2.74-11.44-2.39-17.48,1.49-34-2.21-50.27-8.38-12.63-4.79-26.07-2-39.13-2.08a89.92,89.92,0,0,1-27.67-4.48c-14.18-4.54-29.6-3.12-44.47-4.35-9.07-.76-18.26-.21-27.39-.14-6.72,0-13.07-.86-18.64-5.09-4.64-3.53-10.19-4-15.7-3.63-23.58,1.7-47.3-.2-69.17-7.93-15.64-5.52-28.84-2.92-43.4.34-10,2.25-20.35,1.9-29.55-4.35-7-4.73-14.73-3.9-22.22-1.79a56.93,56.93,0,0,1-29.23.58,101.35,101.35,0,0,0-47.45.17c-9.69,2.25-20.29-.37-30.49.44a4.84,4.84,0,0,1-5.35-4.51c-.12-2.55,2.53-2.92,4.67-3.66,7.55-2.58,15.11-5,23.16-5.4,11.48,0,22.88-1.87,34.36-1.14,29.72-2.08,59.36,5.73,85.33-.1-8.44-.77-20.68,2-32.93,1-9.13-.82-18.61,1.28-27.2-3.5,9.69-2.44,19.61-1.5,29.41-1.65,142.86-2.26,285.73-2.8,428.58.49,55.48,1.27,111,3.57,165.08,18.45,137.4,37.8,221.6,126.74,254.36,264.89,6.06,25.56,10.31,51.51,10.69,77.92-6.64,6.71.6,13.63.08,20.62C1367.21,441.41,1365.77,451.2,1370.31,460Z"/><path class="cls-2" d="M879.27,1363.62c-4.81,2.56-10,1.37-15,1.37-108.88,0-217.76,1-326.61-.48-57.2-.76-114.57-2-171.31-11.51-67.06-11.23-128.31-36-179.9-80.65-28.28-24.47-53.78-52.28-70.92-86.41,3.94-1.58,6.25,1.22,8.43,3.49,4.72,4.89,9.35,8.21,15.87,2.7,1.74-1.46,4.25-.92,6.31,0,15.55,7,32.69,7.11,48.76,11.36,15.62,4.14,29.68,14.8,47.16,9.06,15.63,7.85,35,4.16,49.41,16.26,4.23,3.54,9.8,1.42,14.51-1.15,6-3.29,11.05-2.44,15.36,3.19,9.62,12.53,23,17.25,38.24,17.85,2.19.09,4.81-.2,6.41,1.08,12.28,9.83,28,6.81,41.72,11.26a65.19,65.19,0,0,0,29.3,2.37c10.64-1.53,20.2,1.95,29.27,6.92,14.28,7.82,28.6,12.83,44.52,4.21a15.56,15.56,0,0,1,14.88,0c7.38,4,15.12,5,23.26,4.92a35.28,35.28,0,0,1,13.82,3.11c2.69,1.12,5.41,2.77,8.32,2.59,21.26-1.34,40.66,5.74,60.2,12.65,7,2.47,14.52,1.3,21.79,1.13,8.76-.2,16.65,1.74,23.54,7.27,17.74,7,36.8,8.26,55.21,12.23,10.27,2.22,20.6,4.68,31.17,5.7,4.72.46,9.1,3,9.66,8.85-1.93,3.64-4.83,5.9-8.75,6.26,4.65.89,6.37-3.74,9.57-5.84,15.47-3.39,30.88-4.39,46.23.71,2.42.8,4.9,1.39,7,2.87,2.53,1.76,4.57,4.09,4,7.23-.76,4.51-4.77,3.73-7.86,3.8-9.07.18-18.14.08-27.21.06,27.25.2,54.47-.82,81.7-1.75,4.09-.14,9-.63,10,4.2s-3.65,6.79-7.34,8.1c-8.36,3-17.16,2.81-24.62,2.58C862.4,1363.49,871.39,1357.62,879.27,1363.62Z"/><path class="cls-3" d="M1116.06,186.15c-.32-6.25,0-12.49,6.42-15.1,6.1-2.47,9.83,2.34,14.2,5.76A89.45,89.45,0,0,1,1148.91,189c8.36,9.57,19.77,11.23,31.94,10.2,4.12-.35,9.24-1.4,11.17,4.23,1.63,4.74-1.21,7.41-5,9.62-2.35,1.35-3.9,3.59-2.2,6.37a3.14,3.14,0,0,0,4.82.59c7.78-6.31,12.06.3,16.34,4.73,5.23,5.4,9.26,9.15,17.3,3.27,7.65-5.58,11.33,1.74,12.89,7.7,4,15.23,3.61,15,18.26,13,6.72-.93,7.81,6.45,7.62,9.67-.68,11.79,4.83,19.17,13.87,25.26a14,14,0,0,1,6.19,10c1.49,16.09,11.84,23.57,25.73,28.51,9.41,3.34,12.82,10.66,12.07,20.66-.82,10.85,5,20,15.4,21.9,5.73,1.05,6.79,3.2,6.33,7.5-1.16,10.66,2.26,20.93,2.34,31.47,0,1.77.07,4.3,1.15,5.16,12.75,10.16,9.22,24.31,9.47,37.51,0,1.74-1.44,4.61-.81,5.09,12.55,9.54,4.35,23.48,7.66,34.91-4.92,10.67-3.19,21.89-2.25,32.9a148.88,148.88,0,0,1,.43,25.15c-.36,4.27-1,9.93-6.54,9.66-4.74-.23-5.08-5.54-5.37-9.58-.52-7.27-1-14.63-.92-21.85.08-17.9-3.49-35.7-11.79-50.45-9-16-10.27-33.88-18-49.79-5-10.31-6.22-22.33-15.66-30.68-3.45-3.05-2-9-2.13-13.75-.14-5.33-1.33-10-6.1-13.31-11.82-8.28-18.47-20.46-23.15-33.53-3.45-9.66-6.62-18.47-18.2-21-6.2-1.37-7.84-8.36-12.3-12a12.91,12.91,0,0,1-2.15-2.4c-2.42-5.29-5.12-10.31-9.84-14.13-6.4-5.18-4.91-14.06-8.9-20.71-4.8,5.49-.43,16.42-11.17,17.79-10-8.58-17.39-19.51-26.17-29.18-30.16-33.22-68.29-51.65-110.65-63.1-18.74-5.07-37.93-7.58-57-10.51-3.52-.54-7.44,0-10-3.41.13-1,.07-2.82-.75-2.76-12.71.82-25.17-4.9-38-1.2a18.31,18.31,0,0,1-11.9-.36c-12-4.94-24.15-3-36.52-1.89-14.1,1.23-28.37,1.26-42.36-1.87-8.42-1.88-9.3-4.4-4.74-13.25-9.14,3.41-17.91,3.55-26.72-.12-4.46-1.86-9.34-1.49-14.08-1.36-8.89.26-17-1-25-6s-17.83-3.36-26.75-1.9c-9.57,1.57-18.09.46-26-5.15-7.45-5.28-15.76-7-24.84-6.78-27.78.66-55.07-3.05-82.11-9.41-13.51-3.18-27.69-.7-41.35-3.56-2.13-.44-4.83.35-6.45-.79-11.37-8-23.87-3.56-36-3.71-24.91-.3-49.18-4.69-73.06-11.49a43.15,43.15,0,0,0-11.87-1.64c-19,0-38.25-2.12-56.85.57a198.53,198.53,0,0,1-59.57-.45,35,35,0,0,1-15.16-5.76c-10.27-7.17-30.71-7.09-40.91.08-3.73,2.62-6.73,8.06-12.09,5.33-5.73-2.91-2.85-9.09-3.47-13.9a17.73,17.73,0,0,1,0-2.19c8.08-4.84,17.78-4.86,26.17-8.76,6,1.62,11-2.9,16.76-2.64a11.57,11.57,0,0,0,3.16-.77c-1.25,0-2.45-.06-3.13-1.35,2.76-2.13,6-2.37,9.3-2.27,6.76-.1,14.1,2.45,19.45-4.21,18.8-5.61,38.43-5.29,57.63-8a3,3,0,0,1,2.09,1.89L394,64c.47,3.73,3.06,3.27,5.59,2.84,2.84-.5,5.76-1.79,8.51-1.47,17.45,2,34.26-3.69,51.5-4,6.62-.12,12.5,3.2,18.82,4.52,9.86,2,18.62.46,27.87-1.68,8.55-2,16.62-2.61,24.58,4.06s18.16,4.06,27.43,2.46c7.1-1.22,14-3.57,20.9-5.86a8.47,8.47,0,0,1,7.35.6c12.28,8.2,27,6.93,40.39,10.76,15.37,4.39,31.21,1.49,46.82,2.06,5.27.19,10.19.28,13.78,4.9,2.73,3.51,6.57,4.23,10.8,4,23.34-1.31,46.56,1.66,69.85,2.19,1.81,0,4.07-.43,5.38.44,16.67,11.09,35.35,5.81,53,5.63,13-.13,23.47,6.43,35.37,8.89a104.93,104.93,0,0,0,33.51,1.74c2.21-.25,5-1.44,6.15.32,8.82,13.91,25.91,6.5,37,14.56,1.57,1.14,4.57,1.79,6.23,1.08,20.65-8.87,36.85,4.41,54,11.2,11.12,4.39,22.55,7.38,33.91,10.66,7.22,2.08,14.08,9.48,22.61,3.27,8.8,17.83,31.58,7,42.64,20.77,2.5,3.1,6,4.74,1.54,8.36-2.53,2-4.28,4.13-2.62,7.38,1.47,2.88,4.4,2.05,6.83,2.13,4,.13,8,0,12.3.3a8.5,8.5,0,0,0,5.09,2.95C1119.43,188,1117,187.8,1116.06,186.15Z"/><path class="cls-4" d="M287,82.82c6.34,1.52,4,5.67,2.88,9.46-.66,2.2-1.07,4.4,1.77,5.36a3.79,3.79,0,0,0,4.73-1.83c4.77-11.45,15.93-8.23,24.48-10.62,9.32-2.61,18.31-2.74,25.31,6.32C350.4,97,357.36,96,363.48,96.33c15.19,1,29.77,6.28,45.77.45,9.68-3.53,21.76.14,32.6-1,30.5-3.1,59.32,6.24,88.77,10.9,16.58,2.63,33,4.92,49.48-.55,1.82-.6,3.69-1.33,5.1.14,11.31,11.77,26.41,7.86,40,9.08,10.18.92,20.31.85,29.92,4.92,2,.84,4.2,1.86,6.26,1.78,21.82-.89,43,7.74,64.92,4.57,10.84-1.57,20,2.21,28.36,8.52,6,4.55,12.18,4.59,19.53,3.74,12.55-1.45,26.07-5.8,36.85,5.89,2.41,2.62,6.23,1.37,9.46,1.62,9.92.76,19.94-1.72,29.72,3.77a14.4,14.4,0,0,0,15.53-1.62,8.6,8.6,0,0,1,6-2.1c2.7,0,5.51.46,6.18,3.36.72,3.06-2.52,2.8-4.26,3.78-2.15,1.2-5,1.46-7.34,7.24,48.63,4.49,96.89.1,144.66,7-1.35,4.18-5.8,1.63-7,4.6-10.12,6.66-20.39-.18-30.58.41-11.61-2.88-23.4-1-35.11-1.32a48.54,48.54,0,0,1-12.32-1c-4.61-1.49-9.37-1.27-14.11-1.27H536.34c-4.75,0-9.49,0-14.07,1.46-21.85,1.37-43.64,4.21-65.59,3.21-12.73-.58-25.33,4.64-38.09.81-.93-.52-2.52-1.8-2.32-2,4.32-4,.71-3.16-1.86-3.34a71.53,71.53,0,0,0-20.62,1.92c-15,3.29-28.94-2.07-42.74-5.24-17.34-4-35.67-1.8-52.31-9.66-17.34-8.19-37.42-9.63-53.38-21.4-2.46-1.82-5.45-1.62-8.41-1.64-15.49-.07-18.22-3.55-14.34-18A243.54,243.54,0,0,1,287,82.82Z"/><path class="cls-5" d="M675.05,1308.67c-6.43-5.66-14-7.19-22.36-6.66-12.45.79-23.92-2.77-36-6-13.23-3.55-26.58-11.94-41.71-7.26a12.18,12.18,0,0,1-10.48-1.78c-5.6-3.87-12-4.84-18.74-4.68-7.19.18-14.08.64-20.5-5-3.87-3.4-10.51-2.85-15.43.55-14.76,10.2-29.14,3.37-42-2.87-10.54-5.12-19.9-9.84-32.11-8.25a72.24,72.24,0,0,1-35.34-4.5c-4.68-1.8-9.27-1.94-14-1.73-6.44.29-12.32-.19-16.7-5.86-2.83-3.68-7.22-3.32-11.16-2.91-9.42,1-18.1-3.16-26.45-5.67-4.27-1.29-10.86-7.45-13.64-13.29-3.44-7.25-7.07-6-11.69-2.08-6.82,5.87-14,4.56-19.88-.45a36.33,36.33,0,0,0-18.59-8.41c-9.2-1.45-18.94-.33-26.92-6.82a4.64,4.64,0,0,0-4.2-.48c-13.56,8.15-23.43,0-35.25-5.68-11-5.25-24.45-5.66-36.93-7.45-5.13-.74-10.1-1.7-14.65-3.92-5.36-2.61-10.35-8.16-13.89,2.25-1,2.82-4.49.85-6.48-.88-4.88-4.26-9.69-8.59-14.54-12.9-16-27.53-29.15-56.19-35.28-87.68,6.49-.86,5.73,4.86,7.47,8.2,2.57-5.91,7.93-7.86,13.17-6.15,14.41,4.68,29.61,2.73,44.09,6.21,1.05.26,2.4.08,3.16.71,15.69,13,35.34,12,53.74,15.48,3.92.74,7.68,2.52,11.38-.41,2.46-1.31,4.44-.16,5.61,1.75,9.11,14.93,20.59,28.11,31,42.08,3.68,7.31,9.84,12.19,16.41,16.66a216,216,0,0,0,56.45,34.34,38.21,38.21,0,0,0,17.36,6.54c6.65,2.56,13.82,3.71,20,7.55,2,2.09,3.81,4.85,7.2,3.78,8.75-2.79,17.23,1,25.88.74a27.51,27.51,0,0,1,5.55,1c12.17,4.64,25.29,4.54,37.67,4.69,42.52.51,85,4.8,127.52,2.36q103.85-.26,207.67-.07c4.36,0,8.76-.09,12.92,1.48,5.28,3.24,2,5.28-1.33,6.35-7.29,2.35-14.9,3.79-22.54,3-8-.81-15.94-.48-22.32-.76,11-.7,23.42,1.47,36,1.61,3.11,0,7.66.06,7.94,4,.33,4.65-4.06,5.29-7.84,5.34-5.42.07-10.83.21-15.48.17,7.59,2.38,18.16-5.23,24.76,5.42-1.34,9.88-7.75,10.41-15.14,7.63-7.95-3-12.76-2.63-14.68,7.39-1.42,7.33-9.26,9.71-15.45,4.76-7.94-6.35-16.1-7-25.57-5.35-11.25,1.94-22.42-.28-33.5-2.62-5.47-1.15-11.32-2.7-16.21,2.34,2.54,4.32,6,2.43,9,2.25,5.88-.35,12.4-1.45,14.95,5.53,2.44,6.66-3.16,10.58-7,14.78C678.65,1308.35,677.07,1309.35,675.05,1308.67Z"/><path class="cls-6" d="M782.49,1271.41c-4.46-7.54-11.79-4.16-17.83-4.1a86.58,86.58,0,0,1-19.74-1.6c12.5-6.61,25.13.3,38.7-6.53l-58.54-4.25.18-3.28c12.14,0,24.27,0,36.41,0a66,66,0,0,0,25.14-4.47c3.12-3.2,7.25-3.4,11.2-3.22,39.67,1.85,79.21-2.44,118.85-2.3,4,0,8-.09,11.87,1.17,5,2.46,3.87,4.67-.55,6.16-3.9,1.32-7.8-.74-11.75-.68,3.83.25,7.61,1.8,11.43,1.08,12.5-2.38,23.14.06,30.89,11a9,9,0,0,0,4.46,3.1c31.25,10.5,59.54,27.63,89.86,40.2a203.56,203.56,0,0,0,35.45,11.12c11.87,2.53,22.82,7.74,34.44,11,4.88,1.35,7.82,5.14,10.37,9.25a371.68,371.68,0,0,1-100.88,21.74c-4-2.66-2.51-4.8.9-6.07,4.57-1.69,9.33-1.39,14.61,0-5-1.81-9.92-2.71-14-.89-17.31,7.69-35.17,3.8-52.86,3.25-3.48-.11-8.43-.19-8.27-5s4.83-4.6,8.5-4.55c7.25.09,14.56,1.27,21.66-1.16,1.4-.52,1.25,1.13.88-.28,0-.13-.33-.14-.87,0-8.67,2.68-16.82.3-25.52-1-18.59-2.7-35.27-10.86-53.12-15.14-9.7-2.32-19.12-4-27.25-10.11-1.75-1.3-3.77-2.83-5.81-3-20-1.34-36.53-14-55.94-17.12-14.52-2.32-28.55-5.92-41.46-13.24C789.06,1279.79,784.22,1277.25,782.49,1271.41Z"/><path class="cls-7" d="M214.49,1122.81c-.15,3-.33,7.06-4.48,5.43-12.33-4.81-24.64-7.21-37.91-4.63-2.59.5-6.58-1.88-8.71-4.1-11.89-12.42-27.47-11.62-42.6-12.57-4.34-.27-8.69.34-12.87-1.77-8.9-4.51-16.82-5.1-20.7,8.43-3.38-6-1.06-12.77-7-15.34-7.43-20.54-10.67-42-13.63-63.47A558.38,558.38,0,0,1,61,949.1c6.29,1.13,4.74,6.38,4.95,10.23.3,5.36,1,10.92-1.39,15.9,7.28-1.56,15-4.43,19.57,5.29,1.55,3.3,4.58,4.51,8,5,12.24,1.78,24.19,3.83,35.28,10.3,13.43,7.84,30,3.78,44.16,9.94,4.2,1.83,3.89-2.77,3.92-5.62.07-7.21-.62-14.58,4.21-20.84,5.34,1.41,4.7,6,4.85,9.78,1.24,31.18,7,61.54,16.25,91.27C205.22,1094.55,211.94,1108,214.49,1122.81Z"/><path class="cls-8" d="M782.49,1271.41c16.33,13.17,35.53,19,55.9,21.88.36,0,.8-.11,1.08,0,20.36,10.94,44.92,10.33,64.48,23.39,4.95,3.3,9.86,5.71,16.18,5.29,3.85-.25,8.67.1,11.59,2.21,15.88,11.46,36.22,8.1,53,16.6,4.82,2.44,11.5,1.58,17.18-.45,5-1.78,9-.77,12.64,3.84l-39.85,2.5c0,1,.07,1.89.11,2.84,18.51,0,37.1,6.13,55.48-1.57,8.3-3.47,15.23-1.83,22.24,4.54-5.53,0-11.07.11-16.59,0-3.29-.1-5.06.62-3.51,4.28l-6.1.32c-7.94,2.8-16.61-1.46-24.42,2.53-16.43,3.28-33.16,1.73-49.73,2.72-24.25,1.45-48.61,1-72.93,1.29h-35.6l-.42-2.94c14-4.41,31.07,2.64,44.77-11.15H782.57c3-4.73,5.57-4.89,9.64-4.54,10.49.89,21.07.76,31.62.9,1.92,0,4.9,1,5.08-2.26a4.67,4.67,0,0,0-3.91-4.72c-10.59-1.57-20.52-7.78-31.72-4.92-7.22,1.84-14.51.54-21.75,1a8.15,8.15,0,0,0-8.66-8.09c-12.17.67-23.82-3.18-35-5.83-17.58-4.16-36.34-3.79-52.84-12.39,2.1-2.48,4.19-5,6.33-7.42,2.34-2.68,6-5,3.58-9.27-2.22-3.92-6.29-3.17-9.85-2.89-2.49.2-4.89,1.44-7.39,1.74-4,.49-8.88,1-9.61-4.38s3.29-7.61,8.06-8.41c7.41-1.25,14.5,1.14,21.53,2.6,10.54,2.17,20.77,2.48,31.26,0,7.67-1.82,14.56.65,19.67,6.59,2.62,3,4.82,3.37,8.47,2.18,4-1.31,4.43-3.84,4.78-7.39,1.06-10.62,3.87-12,14.15-7.94C772,1276.47,778.33,1280.48,782.49,1271.41Z"/><path class="cls-9" d="M98.09,262.28c-.2-3.57,2-6.11,3.77-8.8,4.3-2.22,8-4.51,8.07-10.44,0-4.52,2.36-9,7.3-9.71,5.4-.78,5.2,4.6,7.22,7.87,5.82,9.43,13.77,17.26,24.42,20.63,12.37,3.9,22.25,12.51,34.4,16.62a8.57,8.57,0,0,1,5.39,5.23c1.88,6.12,5.29,7.38,11.82,7.59,8.62.27,10.88,7.28,9.12,15.33-1.51,10.59-6.63,20-9.7,30.09-13.1,42.86-17.38,86.85-17.4,131.46,0,5.66,2.51,12.68-4.86,16.41-4.32-3.56-3.39-8.59-3.45-13.2-.2-15.68-.06-31.37-.08-47.06,0-5.35-.68-10.19-6.32-12.78a11.34,11.34,0,0,1-5.35-5.33c-6.08-12.06-14.78-19.11-29.37-18.26-8.53.5-14.25-6.12-17.25-13.27-4.07-9.72-11.59-6.51-18.53-6.83s-8.41,4.2-9.41,9.59c-.53,2.81-1.12,6.34-4.82,6.37-4.18,0-4.83-3.88-5.79-6.93-1.84-5.8-1.75-11.51,1.68-16.85-4.1,4.9-5.37,10.72-6.13,16.91-4.39,35.49-7.06,71-6.78,106.87.14,16.69-2.36,33.42-2.06,50.22.06,3.58-.1,7.41-3.76,9.71l-1.78-.23c1.33-73.2.55-146.59,18.07-218.43,3.36-13.76,6.73-27.6,12.93-40.49A57.63,57.63,0,0,0,98.09,262.28Z"/><path class="cls-10" d="M1370.42,951.38a551.64,551.64,0,0,1-9.89,110.57c-2.09,10.64-5.76,21.09-7.82,31.85-5.71,3.13-8.58.3-8.62-5.07-.08-8.89-5.86-13.36-11.81-18.41-22.14-18.78-43.09-38.88-63.63-59.4-1.28-1.28-2.22-3-3.73-3.95-13.12-7.88-16.05-19.25-14.14-34,1.54-11.78.67-24-.13-36-.35-34.62-.16-69.22-.13-103.82,0-5.37-.75-11,3.32-15.59,7.39,1.35,5.18,7.55,5.24,11.78.39,25.08.16,50.17.21,75.26,0,4.32-.29,8.66.76,13.35.89-9.28,4.65-15.67,14.85-15.64,4.24-.85,6.76,2,9.4,4.47a21.53,21.53,0,0,0,11.64,5.65c11.91,1.77,21.08,7.27,27.13,18,2.37,4.2,6.55,7.75,11.26,8,9.57.55,14.86,10.45,24.67,10.27,2.26,0,3.77,3.35,4.19,5.93,1.37,8.45,1.93,17,3.49,23.26.48-4.37-2.11-10.76-2-17.34,0-4.06-1-8.2,4.26-9.87Z"/><path class="cls-11" d="M1253.55,939.48c.16,16.71,2,33.45-1.09,50.08-.44,2.37-.22,4.08,2.25,5.37,13.85,7.27,21,21.71,33.09,31,18.07,13.87,32,32.4,50.75,45.75,5.12,3.65,11.08,8.23,7.87,17.06-1.58,4.32,2.78,5,6.29,5-3.28,21.82-12.45,41.61-20.87,61.7a223.38,223.38,0,0,1-21.3,39c-4.79-.51-4-4.55-4.42-7.47-1.56-11.09-7.17-19.25-16-26.16-12.1-9.48-20.65-22.24-29-35-1.18-1.83-2.52-3.93-2.14-6.07,1-5.68-1.21-8.1-6.83-8.2-7.94-.14-9.3-8.23-13.79-12.42-5.38,2.29-5.41,10.91-12.38,9.7-2.79-.49-2.67-3.94-2.61-6.56,10-30.23,19.09-60.66,21.9-92.57,1.63-18.55,3.89-37,3.4-55.74C1248.6,948.83,1247.1,942.66,1253.55,939.48Z"/><path class="cls-12" d="M179.76,979.15c.47,8.23-2.86,16.14-.7,24.72,1.82,7.27-5.19,8.49-8.85,5.57-6.52-5.18-12.76-3.86-20-4.08-9.15-.27-20-2.18-26.83-7.51-10-7.76-21.07-6.94-31.78-9.18-5.7-1.19-10.69-1.5-11.12-9.12-.17-3.13-12.54-3.15-16.49.06-2.76-10.09,2.15-20.82-3-30.51-2.76-26.29-3.17-52.66-2.4-79.06,6.08.27,4.51,5.53,5.57,8.87,1.72,5.42,3.87,9.67,10.74,7.43,1-.34,2.5-.79,3.2-.26,14.46,11,33.81,3.63,48.78,13.25,9.46,6.08,21.44,2.49,31.86,6.52,2.22.86,8.34-2.64,12.73-4,1.66-.5.52-6.77.53-10.41,0-19.71.06-39.42-.1-59.15,0-30.58-.87-61.13-.26-91.69.39-28.52-.74-57,0-85.56.8-40.85-.9-81.7-.05-122.54.12-5.57-2.33-12.81,5.83-15.69,4.82,6,3.29,13.25,3.3,20q.15,182.16,0,364.33c0,20.8,3.65,41.43,2.25,62.25C182.66,968.85,183.74,974.52,179.76,979.15Z"/><path class="cls-13" d="M174.59,834.59c.15,23,.32,46,.39,69,0,2.73,1.12,6.68-2.7,7.42-4.92,1-2.61-5.21-6.39-7.24-2.95,5.57-5.24,14.46-13.35,3.17-2.87-4-11.39.76-17.38-1.66-14-5.66-28.07-11.25-43.85-9.69-2.61.26-5.71-2.87-8.32-4.78-2.08-1.52-3.81-3.26-6.75-2.9-13.53,1.66-14.06,1.23-15.2-12.15-.19-2.23-.27-4.39-2.4-5.76-.4-21.84-1.11-43.67-1.15-65.51Q57.27,683.77,57.44,563c0-6.51.65-13,1-19.52a1.06,1.06,0,0,1,1.08-.36c3.42,4.42,2.67,9.66,2.81,14.68.53,18.52-.92,37-.15,55.56.67,37.19-.28,74.37-.22,111.53-.33,27.72.63,55.49-.94,79.08.12-15.9,10.68-22.15,29.52-14.08C111.65,799,133.3,806,156.85,804.54c12-.73,15.89,3.64,16,16.09C172.94,825.33,172.05,830.19,174.59,834.59Z"/><path class="cls-14" d="M222.61,115.39c1.43.58,4.2,0,3.21,2.9-3.58,10.46-1,14.78,8.86,12.39,7.07-1.71,11.57-.54,16.26,4.64a19.31,19.31,0,0,0,9.41,5.28c18.69,4.44,36.07,12.67,54.34,18.2,10.32,3.13,21.27,1.07,32.19,3.5,16,3.57,32.37,9.46,49.45,6,6.73-1.38,13.44-3.86,20.25-.7,1.35.62,4.36-.47,3.81,2.24-.25,1.24-2.66,2-4.09,3-2,4.57-6.21,4.47-10.19,4.9-48.11,5.17-92.66,19.79-131.6,49.4-2.65,2-5.43,3.75-9,3.32a35.61,35.61,0,0,0-23.36-14.7c-2.86-.52-5.94-1.49-7.92-3.56-9.28-9.68-21.64-13.1-33.72-17.14-9.12-3-17.12-8-24.73-13.83-6.65-5.06-13.55-9-21.44-1.91-1.1,1-2.73.77-4-.3C170.93,153.84,194.65,132.21,222.61,115.39Z"/><path class="cls-15" d="M1133.33,1335c-45.58-19.06-93.45-32.13-138.35-53-3.68-1.71-7.17-3.29-9.17-7.27-2.8-5.56-9.51-8.57-13.7-7.17-10.63,3.55-15.38-4.19-19.86-9.56-5-6-10.26-6.91-16.86-6.4-9.52.72-18.65-2.93-28.3-1.84,7.79-4.79,17,.22,24.52-4.62a8,8,0,0,1,5.14-2.84c14.22-1.38,28.61,1.31,42.76-1.73,21.27-1.18,42.23-5.51,63.5-6.66,6.87,2.57,13.63.52,20.41-.62,4.5-.75,8.86-1.46,10.51,4.51a5.44,5.44,0,0,0,5.73,4.2c8.22-.4,12.42,4.67,16.12,10.9,1.85,3.11,4,6.37,7.35,8,19.22,9,34.75,24,53.74,33.42,3.92,2,7.72,3.92,12,5,12.68,3.23,13.86,7.07,5.95,18.06C1161.91,1325.4,1147.65,1330.28,1133.33,1335Z"/><path class="cls-16" d="M150.35,179c14.72-9.52,14.66-9.44,30.15,2.3,5.5,4.17,11.08,8.48,18.11,9.81,21.43,4,36.6,21.47,57.54,26.7,5.61,1.4,9.4,5.59,8.93,12.18.76,5.26-3.36,7.82-6.35,10.72-17.66,17-33.42,35.43-44.05,57.83-1.24,2.62-2.22,6.52-6.76,5.48-1.21-10.09-5.34-13.18-13-8.72-4.62,2.68-5.52-.74-5.78-2.92-1.14-9.75-8.74-11-15.7-15.24-16.21-9.86-35.36-14.72-49.17-28.46-1.88-1.87-2.91-5.08-3.29-7.82s1-6.64-3.67-5.81c-3.27.58-6.6,3.91-5.35,7.13,4.35,11.17-2.67,11.19-10.1,11.27C114.24,226.2,129.6,200.86,150.35,179Z"/><path class="cls-17" d="M1225.36,1104.57c4.17,2.35,4.42,2.41,6.31-1.9,1.41-3.24,1.34-7.94,5.71-8.38,5.58-.55,5.45,5,6.75,8.4,2.27,6,6.86,6.45,12.31,6.56,4.63.09,9.73-.65,5.6,8-3.08,6.42,3.76,12.9,8.15,17.49,9.36,9.82,16,21.94,28.22,29.58,6.63,4.15,9.93,13.15,10.38,21.94.15,2.83-.71,5.89,1.75,8.24-8.88,18-21.57,33.37-35.63,47.4-4,4-6.06,10-11.9,12.12-4,1.74-5.74.56-4.07-3.66,1.08-2.73,4.06-4.21,5.52-6.75,2.76-4.79,3.33-8.78-4.26-7.94s-12.41-3.42-13.56-9.9c-1.27-7.17-5.26-11.86-10.09-16.26-9.87-9-19-18.81-30-26.53-4.51-3.18-5.66-6.5-1.69-10.78,2.09-2.25,4.18-4.58,1.33-7.49s-6-1.81-9.19-.67c-4.53,1.59-7.59,7.63-13.67,4.54-2.11-4.12.4-7,2.9-9.58,14.31-14.66,25.08-31.66,33.58-50.2C1220.85,1106.53,1222.09,1104.09,1225.36,1104.57Z"/><path class="cls-18" d="M1183.16,1168.05c3.8.61,6-2,8.47-4.12a17.47,17.47,0,0,1,9.84-4.34c4.66-.43,7.41,1.67,9.4,5.8,2.18,4.52.6,6.3-3.67,8.08-4.11,1.72-4.19,5-.12,7.23,12.56,7,21.23,18.34,31.86,27.47,5.77,4.95,10.28,9.59,10.56,18.19.14,4.58,4.49,9.39,11.25,6.53,2.45-1,5.09-3.6,7.24.74,1.65,3.35,3.31,6.15.21,9.89-2.1,2.52-4,4.91-6.77,6.84-3.28,2.26-.89,3.23,1.58,3.63a182.87,182.87,0,0,1-44.06,37.27c-3.57-5.61,2.77-8.19,4.52-13.73-6.82,4.58-10.61,2.55-13.73-3.41-3.28-6.27-9.12-10.52-15-14.16-23.33-14.56-42.77-33.35-60.25-54.36.18-2.45,1.77-4,3.66-5.11,13.57-8,25.06-18.66,36.56-29.3C1177.06,1169.07,1179.21,1166,1183.16,1168.05Z"/><path class="cls-19" d="M1135.37,1205c9.26,3.07,12.19,12.65,18.59,18.73,16.35,15.52,34.1,29.1,52.42,42,5.13,3.6,5.45,9.15,9.42,13.38,1.47-1.14,2.9-2.17,4.24-3.31,2.49-2.13,5.35-3.25,7.69-.45,2.46,3-1.09,4.36-2.54,6.13-2.47,3-6.42,5.09-6.24,9.8l-2.31,1.93c-2.92.48-6,.73-6.78,4.47a123,123,0,0,1-35,19.76c-.95-2.59-1.1-2.72.9-5,4.33-4.85,2.22-8.88-2.77-9.74-20.9-3.57-36.14-17.46-52.67-28.61-11.52-7.78-27.06-11.39-32-27.37-.89-2.87-5.24-1.44-8-1.65-4.87-.38-10.91,1.17-9.28-7.62.66-3.55-2.38-1.91-4.42-2-7-.21-13.69,5.89-20.92,1.21,1.52-3.44,4.7-4.42,7.93-5.09a308.47,308.47,0,0,0,73.39-24.93C1129.58,1205.41,1132.3,1204.18,1135.37,1205Z"/><path class="cls-3" d="M508.19,52.35l38.32-.2c2.63,0,5.2.28,6.69,2.82a3.11,3.11,0,0,1-.62,4c-2.42,2.53-4.66.75-6.94-.24-6.68-2.9-12.94-3.19-19.76.6-9.09,5.06-18.73-.23-27.74-1.23-14.23-1.59-28.35-.86-42.49-1.6-7.89-3.05-16.47,1-24.33-2.32,8.8-2.56,17.79-1.67,26.74-1.5C474.78,53.47,491.49,54,508.19,52.35Z"/><path class="cls-20" d="M1370.31,460c-5.4-.67-4-4.9-4.56-8.33-1.81-10.64,1.82-21.79-3.79-32.21-2.26-4.2,2.69-5.94,5.83-7.65C1370.74,427.79,1370.39,443.91,1370.31,460Z"/><path class="cls-21" d="M1372.48,830.67l.78-.09a389.83,389.83,0,0,1-.82,57.08,2.54,2.54,0,0,1-3.5-1A104,104,0,0,1,1372.48,830.67Z"/><path class="cls-10" d="M1370.25,887.61c.73,0,1.46,0,2.19,0,.11,21.27.88,42.55-2,63.72l-.47-.32c-5.65-8.54-2.26-18.15-3.15-27.25-.38-3.92.24-7.88.13-11.83C1367.44,903.78,1364.55,895.11,1370.25,887.61Z"/><path class="cls-4" d="M358.75,62.82c1,.72,4.81.3,2,2.64C354.18,70.86,346.84,72,339.3,67A52.05,52.05,0,0,1,358.75,62.82Z"/><path class="cls-4" d="M508.19,52.35c-16.69,3.51-33.4,2.78-50.13.28l21.6-.9Z"/><path class="cls-16" d="M98.09,262.28c1.93,9.29-1,16.71-8.65,22.29A69.62,69.62,0,0,1,98.09,262.28Z"/><path class="cls-4" d="M431.32,54.13c8,1.59,16.59-2.36,24.33,2.32l-37.18.2-2.09-1.88Z"/><path class="cls-4" d="M330,69.3c1.21.4,3.51,1.57,3,1.77-6.28,2.77-12.45,7.39-19.83,3C318.54,71.52,324,69.57,330,69.3Z"/><path class="cls-6" d="M1001.93,1359.61c7.66-5.5,16.29-1.56,24.42-2.53C1018.45,1360.21,1010.11,1359.14,1001.93,1359.61Z"/><path class="cls-18" d="M1209.86,1297.66c-1.4-.22-3.73-1.12-3-2.06,2.43-3,5.65-5.2,9.77-2.41C1215.08,1295.74,1212.64,1297,1209.86,1297.66Z"/><path class="cls-20" d="M1370.25,887.61l-.22,24.23c-7.25,4.86-10.11,4-11.28-4.05-1-7.14-.86-14.44-2.32-21.54-.67-18.45,1.87-37.29-7.72-54.59-2.09-3.78-1.35-8.59-1.36-13-.09-31.74,2.43-63.74-1.58-95.12-3.8-29.77,2-59.06-.21-88.31-1.34-17.76-2-35.55-2.84-53.37-10.29,1.7-13.55-.5-14.78-9.92a76.9,76.9,0,0,1-.29-14.23c.55-10.46-.59-20.34-7.17-29.09-2.67-3.54-3.46-8-3.83-12.43-.77-9.11-3.78-17-11.32-22.8-5.14-3.94-6.24-9.62-6.23-15.67,0-6.77-1.49-13-5.93-18.36a15.68,15.68,0,0,1-3.71-13.28c1.38-7.55-1.71-12.69-6.87-18.35-9-9.89-16.95-20.88-16.8-35.52.07-7.19-2.74-13.21-10.68-14.35-9-1.3-10.56-7-10.93-14.76-.2-4.14,3.8-10.88-4.74-12.08-6.08-4.57-6.08-12.08-8.63-18.31-6.48-15.77-11.6-32.12-20.89-46.64-1.51-2.35-3.29-4.93-1.83-8.09,6.1-4.86,5.37-12.09,6.41-18.68.34-2.19.29-4.57,3.11-4.93a2.8,2.8,0,0,1,3.18,2.34c2.17,13,8.15,24,17.1,33.53,1,1.06.52,3.48.6,5.39-1.75,2.66-6,3.83-5.65,8.44,4.53-1.33,2.53-6.71,5.65-8.44,4.73.21,7.48,3,8.77,7.08a7.5,7.5,0,0,0,7.32,5.58c11,0,14,8.51,16.45,16.14,5,15.74,11.5,30,26.3,39.05,5.56,3.39,5,9.28,4.86,14.75-.21,7.37-1,14.82,7.78,18.48a5.22,5.22,0,0,1,2.68,3.32c2.52,13.6,11.42,25.17,13.21,38.64,1.14,8.56,4.55,15.08,7.9,22.61,6.62,14.83,14.14,29.86,14.64,47,.43,14.7,2,29.36,3.15,45,5.77-6.29,7.82-20.31,4.53-33.22-2.83-11.07,1-22-.53-33.09-.55-3.9,3.73-1,5.87-.6,6.07,24.69,6.07,49.56,2.19,74.55-2.55,14.62-4.34,29.24,0,43.86,3.55,3.21,2.1,7.47,2.12,11.28.13,25.74,0,51.48.1,77.21,0,4.56-1.29,9.71,4.32,12.37,2,3.38,1,7.09,1,10.64.08,34.43,0,68.87.09,103.31,0,3.57-.81,7.25.88,10.7l.3.42C1372.1,849.66,1368.79,868.54,1370.25,887.61Z"/><path class="cls-22" d="M1372.18,830.25c-3.49-3.28-1.9-7.54-1.91-11.34-.14-37.77-.1-75.54-.11-113.31V583.33h2Z"/><path class="cls-22" d="M1363.62,604.74c-1.55,1.51-3.9,1.93-3.89-.5,0-14.55-3.41-29.46,3.88-43.36Q1363.63,582.81,1363.62,604.74Z"/><path class="cls-8" d="M772.63,1334.5c-3.91,10.89-11.19,5.49-16.84,7.06.85-5.64,4.82-3.78,7.52-4.47S768.76,1335.58,772.63,1334.5Z"/><path class="cls-1" d="M1114.78,185.57c5,1.08,10.18-1.7,12.68,3.27.94,1.86-1.57,4.26-3.57,4.67C1118,194.74,1117.36,189.69,1114.78,185.57Z"/><path class="cls-1" d="M1168.85,212.63c3.14,0,3.85,1.89,3.74,4.35-.13,2.71-1.78,3.77-4.31,3.79-2.08,0-3.71-.91-3.78-3C1164.41,214.84,1166.11,213.08,1168.85,212.63Z"/><path class="cls-1" d="M1070.45,172.78c2.21.59,4.83.75,4.27,3.79-.37,2.06-2.39,2.64-4.25,2.42-2.25-.27-4.35-1.33-4.11-4C1066.59,172.52,1069,173.12,1070.45,172.78Z"/><path class="cls-3" d="M927.19,168.32c-22.27-.15-44.54-.46-66.81-.43q-165.52.23-331,.57c-2.54,0-5.07-.31-7.61-.48,3.46-3.12,7.69-1.75,11.55-1.75q191.27-.12,382.54,0C919.65,166.22,923.94,164.76,927.19,168.32Z"/><path class="cls-3" d="M837.38,161.73c-6.52,0-13,0-19.54,0-2.22,0-4.85-.4-5.13-2.94-.31-2.72,2.28-3.43,4.46-3.44q20.08-.14,40.17,0c2.23,0,4.8.75,4.62,3.36s-2.8,3-5,3C850.4,161.76,843.89,161.72,837.38,161.73Z"/><path class="cls-1" d="M973.16,170.23c-11.91.33-23.82.7-35.62-1.59C949.42,169,961.43,166.43,973.16,170.23Z"/><path class="cls-2" d="M396.66,1238.7c44,4.2,88.09,5,132.18,6.85,11.61.49,23.32-1.3,34.83,1.49-42.63,2.24-85.16-1.77-127.73-2.62C423.13,1244.17,408.93,1245.86,396.66,1238.7Z"/><path class="cls-2" d="M359.33,1231.73c11.38.54,22.52,2.31,33.18,6.51-9.11,1.15-18.05-3.72-27.43,0C360.66,1239.94,359,1236,359.33,1231.73Z"/><path class="cls-2" d="M247.66,1168c7.45,3.32,11.89,9.89,17,15.69C256.72,1180.94,252.1,1174.55,247.66,1168Z"/><path class="cls-8" d="M736.56,1266.56H722.7C728.8,1261.66,732.64,1261.9,736.56,1266.56Z"/><path class="cls-2" d="M321.93,1218.5a36,36,0,0,1,17,6.82C332,1226.29,326.38,1223.78,321.93,1218.5Z"/><path class="cls-23" d="M177.56,484.78q-.26,16.44-.52,32.9c-3.3,3.39-1.69,7.63-1.72,11.44-.36,41.89-.54,83.78-.76,125.67-5.38-.73-3.9-5.33-4.62-8.51-2.2-9.68-2.5-19.53-2.05-30.34-3.23,2.22-3.75,6.73-7.38,7-4.83.39-5.43-4.09-7.21-7.06a10,10,0,0,0-5.72-4.59C124,603,98.65,601.22,75.49,591.48c-7.68-3.23-8.56,1.95-9.38,7.52-.78,5.36,1,12.09-6.78,14.13q.09-35,.19-70c.5-1.71,1.39-3.41,1.44-5.13.83-26.21,2.24-52.43,2.09-78.63-.16-29.93,5-59.34,7-89,.45-6.73,8.27-11.14,7.24-18.82-.07-.54,1.88-2,2.29-1.82a5.67,5.67,0,0,1,2.91,2.77c.89,2.81,1.22,6.1-.74,8.42-6.29,7.45-1.18,14.09,0,21.27,4.19-.94,3.34-3.58,3.37-5.51.16-8.77,1.32-15.93,13.22-11.55,2,.74,4.86-.91,7.34-1.34,5.58-1,9.31.11,11.58,6.47,4.84,13.52,10,16.25,23.74,14.57,7.35-.9,21.06,9.09,23,17.34.81,3.45,1.41,7.11,5.36,7.05,8.42-.13,7.95,5.2,7.95,10.95C177.28,441.69,177.45,463.23,177.56,484.78Z"/><path class="cls-23" d="M181,384.69a34.11,34.11,0,0,1-.15,14.82C173.08,393.66,173.07,391.58,181,384.69Z"/><path class="cls-16" d="M118.2,251c2.75-.14,3.63,1.45,3.92,3.23.48,2.91.64,6.21-3.05,6.93-1.72.34-2.82-1.85-3-3.79C115.7,254.75,116.11,252.42,118.2,251Z"/><path class="cls-24" d="M1255.79,816.78l.1-233.17c-1.77-30.6-.33-61.24-.76-91.85,0-2.48-.43-5.63,3.07-6,2.89-.31,4.65,2.05,5.65,4.44,3.22,7.7,2.09,15.79,1.78,23.78-.17,4.38-1.47,8.65-1.42,13,0,4,.83,7.3,6,7.08,6.31-.27,8.42,4.25,8.62,9.19.78,19.25,8.29,37.66,7,57.14-.33,5,1.19,9.32,5.29,12.56,5.58,4.42,6.69,10.6,7.9,17.31,5.72,31.63,3.75,63.84,7.85,95.63,2,15.33-3.34,31.16-.11,46.82-6.11,22.43-7.06,46-14.91,68.11a106.26,106.26,0,0,0-6.39,29.9c-.59,11.47-4.18,22.11-9.56,32.19-.68,1.62-1.61,4.71-2,4.64-13.84-2.21-9,8.48-10.12,14.75-.3,1.66.88,3.69-1.67,4.23a4.09,4.09,0,0,1-5.06-3.06,45.4,45.4,0,0,1-.8-9.7Q1256,865.31,1255.79,816.78Z"/><path class="cls-21" d="M1275.92,903c2.92-15.7,5.42-31.5,8.85-47.09,4.44-20.19,12.74-39.5,13.22-60.6.18-7.66,6.4-13.79,6.43-21.66,6.4-.29,5.63,4.89,7.1,8.8,7,18.47,13.79,37.08,27,52.25a33.19,33.19,0,0,1,6.74,11c.94,2.68,1.66,6.92,4.77,6.68,9.94-.77,7.5,5.71,6.48,10.65-1.62,7.89.91,15,2.68,22.38,2.49,7,2.47,14.2,2.19,21.42s3,8.11,8.63,5q0,19.62-.08,39.22c-3.34,2-3.23,4.47-2.77,8.23.89,7.39.26,15,.26,23.73-3.35-8.8-6.81-16.07-6.33-24.76.19-3.48.51-11.3-7.75-6a3.08,3.08,0,0,1-2.95-.44c-8.52-12.95-30.05-8.94-34.9-27.24-1.23-4.66-7.93-7.16-12.64-7.57C1291.66,916,1283.19,910.92,1275.92,903Z"/><path class="cls-25" d="M174.59,834.59c-8.51-7.37-1.2-17.43-4.62-25.7-3.17,1.39-.12,5.58-3,7.29-.55-.11-1.73-.11-1.8-.39-3.36-13.82-15.57-8.55-23-8.71-19.55-.41-36.57-7.71-53.66-15.27-15-6.64-25.13-.66-25.37,15.58-.06,4.12,1.61,8.73-4.16,14.59,0-17.44,0-32.66,0-47.88.06-15.69.22-31.38.33-47.06,1.46-9.08.35-18.21.63-27.31.32-10.51,4.36-14.61,14.93-13.71,13.12,1.12,26.2,3.1,38.76,7.05,9.43,3,19,5.2,28.52,7.79,7,1.92,13.81,4.38,16-6.16a3.6,3.6,0,0,1,4.1-2.87c3.17.42,4.23,3.07,4.3,5.56.44,14.7,8.46,28,8,42.82Z"/><path class="cls-23" d="M174.5,740.21c-2.93-15.67-12.69-29.58-10.66-46.53-1.91.49-3,.54-3.1.82-3.1,13.78-3,13.25-17.14,9.87-22.79-5.42-45-13.2-68.49-15.8-9-1-13.46,2.46-14.13,11.68-.65,8.93,2,18.07-1.67,26.79q0-57,0-113.91c4.92-4.6,3.66-10.65,3.91-16.37.46-10.44,5.42-12.77,14.4-7.42C87.16,595,98,597,108.77,597.89c8.2.67,15.55,2.14,22.5,6.7,4.76,3.12,9.88,6.22,16.27,3.17,3.6-1.72,6.19.25,7.58,3.92,1.23,3.25,1.42,7,4.36,9.65,5.83-2.37,3.14-10.73,11.1-13.1.27,15.83-.76,31.56,4,46.56Z"/><path class="cls-6" d="M935.76,1245c14.58-2.7,29.31-1.77,44-1.85C965.24,1247.41,950.42,1244.19,935.76,1245Z"/><path class="cls-22" d="M1359.21,885.39c-7-9.45-8-19.68-3.24-31.48-4,3-8.63,7.6-10,.11-2.4-13.52-16.25-19.39-19.78-32.08-4.31-15.49-19.07-26.81-18.19-44.59.06-1.19-2.35-2.49-3.61-3.74-4.33-10.22-3.73-21.43-1.52-31.25,3.36-15-1.31-28.94-1.44-43.37-.11-12.46-3.51-24.79-1.66-37.56,2-13.49-6.19-26-5-39.68.14-1.58-2.13-4.31-3.86-5-10.5-4-8.54-12.66-8.53-20.82,0-19.05-6.93-37.27-6.86-56.36,0-2.72-2.11-5.21-5.19-2.61-9.69,8.21-9.25-.94-9.66-6-.83-10.52,3.32-20.81,2.09-31.49-.5-4.33.16-8.83-6.94-14.2v98.35c-.63-25.32-1.31-50.63-1.86-76-.25-11.2-.22-22.42-.32-33.63-2.09-8.18.36-16.62-1.4-24.82-2.42-33.24-5.29-66.43-13.37-98.91,2.12-1.79,3.5-5.28,7.07-4,4.44,1.53,1,5,1.27,7.5a91.42,91.42,0,0,1,.1,13.14c-.18,4.69,1,7.22,6.54,7.73,11.49,1.06,15.84,6.37,15.36,17.71-.62,14.88,7.26,25.64,17.6,34.6,6.21,5.38,7.84,11.44,5.79,18.43-1.56,5.35-.82,9.17,3.36,12.58,1.11.91,3.07,2.15,3,3-3.18,23.19,22.07,36.22,20.93,58.65a7.44,7.44,0,0,0,1.66,5.09c11.76,11.88,8.93,26.9,9.15,41.28a80.23,80.23,0,0,0,.35,9.82c.37,2.62,2.05,5.09,4.73,5.46s3.23-2.26,3.67-4.44c.34-1.69.15-4,2.75-3.83s3.4,2.46,3.66,4.7c.22,1.8,0,3.65.19,5.47,1.33,16.18.4,32.28,2.93,48.71,2.18,14.22.88,30.42-1.4,45.48a106.4,106.4,0,0,0,.22,33.51c2.92,18.16,2.68,36.61,2.64,55,0,16.07.53,32.17-.2,48.21-.5,11.27,2.85,21.08,6.81,31.31C1362.06,858.21,1358.28,872,1359.21,885.39Z"/><path class="cls-22" d="M1360.24,832.85v-220l3.06,0V833Z"/><path class="cls-3" d="M1238.8,300.17c-.67,3.6,1,8-4,8-2.52,0-6.1-.57-5.45-4.81s2-7.61,7.14-7.79C1242.52,295.34,1234.9,300.34,1238.8,300.17Z"/><path class="cls-26" d="M527.58,426.83c31.57-23.34,67.19-38.14,104.9-47.54,165.92-41.36,333.24,43.88,397.38,202.54,23.36,57.79,29.61,117.85,19.74,179.49a20.18,20.18,0,0,1-1.52,4c-3.93-3.39-3.29-8.07-2.7-12.22a159.64,159.64,0,0,0-5.38-69c-1.79-6,1.41-12.39-1-17.59-7.2,4.29-11.25-1.13-12.81-6-4.54-14-14.32-24.28-23.11-35.36-2.58-3.25-5-6.15-9.2-7.2a11.08,11.08,0,0,1-7.8-7.08c-3.36-8.54-10.66-11.83-18.24-16-16.1-8.81-34.48-14.15-47.08-28.77-1.65-1.91-4-4.75-6.22-3.91-10.85,4.14-13.34-4-17.65-10.64-3.51-5.45-8.74-9.72-12.83-14.87-8.44-10.61-10.43-10.84-23.92-4.32,1.85,4.56,9.54.19,9.92,6.11.2,3.23-1.85,6.21-5.18,7.73-5.09-.35-8.65-3.61-12.3-6.57-40.62-32.86-86.83-49.37-139.29-48.3-8.89.18-18.2,2.33-26.76-2.37.16-7.9,6.55-5.21,10.32-5.35,7.41-.27,6.79-3.63,4.2-8.31-2.26-4.08-6-7.47-10.39-7.12-15,1.23-25.85-8.65-38.42-13.66-11.13-4.42-22.07-6.94-34-5.49-12.75,1.54-24.17-1.09-31.46-12.79-3.16-5.07-7.24-5.1-12.24-4.43-10.67,1.42-21.72,5.11-30.74-4.86-2-2.21-4.7-.76-7.14.18C533.67,428.32,530.51,429.82,527.58,426.83Z"/><path class="cls-23" d="M865.55,546.14c.18-2.93.39-5.85,3-7.95-2.95-3.23-6.25,2-9.08-.48-2.14-1.91-5.47-3.47-5.24-6.58s3.95-2.21,6-3.28c13.87-7.12,22-.7,28.93,10.93C893.5,546,903,549.63,904,559.65c.26,2.68,3.25,2.79,5,.67,4.72-5.62,8.12-2.38,11.46,1.49,14,16.2,33.81,22.9,52.12,32.08,2.91,1.45,6.79,2.33,8.46,4.71,12.44,17.81,32,29.31,43.09,48,3.85,6.49,2.43,16,11.15,20,3.37-1.56.07-5.63,3-7.64.68.5,2.13,1.07,2.13,1.65.26,23.63,10.36,45.82,9,70.06-.64,11.34-3.7,23-1.32,34.54-6.45,42.48-21.08,81.86-44.71,117.83-2.36-.07-3.56-1.94-3-3.59,3.27-10-4.72-16.89-7.44-25-2.24-6.72-9.2-11.07-17-12.38-8.44-1.43-16-4.63-22.39-10.58a18.34,18.34,0,0,0-8.69-4.36c-14.86-3.43-19.49-9.27-19.28-20.29-.77,3.56-4,9.15-11.49,11.27-3.86,1.08-7.38.93-8.33-4.15.12-6.94,4.71-12.14,7.19-18.13Q955.86,692,900.83,594.09c-2-3.49-4.35-6.76-5.46-10.66,1.12-5.47-.31-9.23-6.63-9.63C881.07,564.53,870.06,558.06,865.55,546.14Z"/><path class="cls-27" d="M830.83,1023.78c-24.84,11.36-51.32,16.62-78.18,19C635.14,1053.38,537.06,1014,458.51,926.2c-6.88-7.69-14.24-15.42-18.36-25.29,6.27,1,8.94-5.86,15.29-6.44,11.29-1,21.54,0,31.79,5,8.61,4.16,18.52,4.2,27.75,5.69,19,3.08,37.59,9.51,57.24,8.14,4.38-.3,9.17-.31,12.77,2.29,10.9,7.86,23.26,11.6,36,15.28a163.33,163.33,0,0,0,21.13,5c23.82,3.57,48.25,8,69.3,18.57,20.77,10.45,44.83,13,63.39,27.94,10.22,8.21,20.92,15.48,34.32,17.83a12.79,12.79,0,0,1,9.23,7.27C821.21,1014,826.38,1018.56,830.83,1023.78Z"/><path class="cls-23" d="M380.91,665.37c5.6-53.46,23.92-102.19,54.47-146.37,10.15-6.08,12-18.82,20.93-26,4.95-4,6.66-13.34,15.87-9.69,4.49,1.78,4.42,7.56.42,19.33,16.23-.25,31.78,4.83,46.82,8.56,13.33,3.31,26.87,6.3,40.34,9.44,4.7,1.09,9.14,2,13.91,1.39,2.94-.37,6.11-.45,7.78,2.56,1.83,3.31.41,6.41-1.77,9a57.59,57.59,0,0,1-11.92,11.14c-10.43,7.13-17.34,17.28-23.63,27.93-3,8.85-9.71,15.37-14.31,23.22-10.21,17.45-18.23,35.78-22.9,55.43-2.12,8.89-6.44,17.1-7.58,26.24-1.82,5.68-.86,11.56-1.28,17.34-.7,9.46-5.35,12.71-14.62,10.21-3.53-.95-6.61-3-10.05-4.22-22.14-7.85-45.59-11.36-67.37-20.41a6.68,6.68,0,0,0-5.21-.32C386,685.62,379.2,680.47,380.91,665.37Z"/><path class="cls-28" d="M830.83,1023.78c-6.74-1.13-11.45-4.7-13-11.52-1.23-5.31-5-9.19-9.55-9.43-16-.87-25.89-12.79-38.47-19.77-11.67-6.48-22.72-14.6-36.75-14.94-9.33-.22-13.73-9.46-20.73-11.4-9.45-2.63-18.53-8.33-27.72-8.63-13.13-.44-23.89-8.2-36.9-8.24-15.61,0-31.19-4.82-44.48-11.49-16.75-8.4-33.57-10.21-51.33-13.42-26-4.69-53.25-5.58-77.85-17.58-4.41-2.16-11.17-3.62-16,2-1.44,1.69-3,.72-6.32-3.8-.23,10.7-5.06,10.2-11.6,5.3-17.57-22.54-31.11-47.22-39.71-74.53.68-.42,1.8-.73,2-.35,5,11.88,14.1,7.61,22.49,5.81,13.41-2.87,25.69,3.42,38.59,4.73,5,.51,10,2.34,15.11,2.09,10.74-.54,20.77.71,30.51,6.37,5.34,3.11,12.52,7.07,18.07-1.89,2.69-4.36,5.63-.18,7.82,2,6.84,6.65,14,12.78,23.32,15.71,11.84,6.83,21.14,16.94,32,25,4.71,4.47,10.26,7.7,15.95,10.71a14.72,14.72,0,0,1,2.38,1.7c3.08,4.38,8.19,4.41,12.66,5.81a257.87,257.87,0,0,0,26.23,10.63c11,4.29,22.23,7.47,34.16,7.51A30.77,30.77,0,0,1,687,923c18.35,3.44,36.7,5,55.06.07a31,31,0,0,1,7.11-.9,29.73,29.73,0,0,1,7,.77c7.08,1.62,14.08,3.7,21.19,5.09,11.34,2.22,21,5.76,24.13,18.65,1.24,5.14,5.82,6.23,10.5,5.67,9.13-1.09,15.3,2.93,19.84,10.51a35.68,35.68,0,0,0,16.9,15c9.64,4,13,14.11,19.54,21,5.43,5.74-4.77,8.32-8.92,11.63-2.64,3.76-6.84,5-10.76,6.76-5.64,2.76-14.47-3.09-17.57,6.51Z"/><path class="cls-29" d="M541.64,572.6a68.58,68.58,0,0,1,23.65-29.33c4.82-3.46,8.61-7.76,12.84-11.71,1.62-1.5,3-3.42,1.91-5.77-1.25-2.65-3.53-1.95-5.62-1.19-6.72,2.43-12.95,1.47-18.5-2.94-2.95-2.36-5.78-2.75-9-.84-6.91,4.09-12.84,4.12-17.59-3.53-2.83-4.55-7.69-5.18-12.62-4.63-16.61,1.85-31.33-9.25-48.11-6.92-3.73.52-3.87-2.57-1.47-5,1.25-1.27,3.3-1.88,4.28-3.28,2.73-3.89,3.47-8.85.15-12-3.53-3.37-6.41.42-8.75,3.33-6,7.44-14.71,12.9-16.69,23.26-1.13,6-6.11,6.26-10.73,7,23.93-37.53,54.83-68.09,92.2-92.17,8.93-2.11,16.77-6.35,26,3.06,5.27,5.38,16.46-1,25-1.89,4.39-.48,7-1.11,9.41,4,5.64,11.87,17.63,16.92,30.82,14.34,11.75-2.31,22.49,1,33.58,4.85,12.68,4.42,22.7,16.15,38.1,13.51,4.72-.81,8.63,3.08,12.17,6.42,4,3.8,4.17,9.08,3.22,13.19s-6.24,1.37-9.55,2-7.43-1.39-10,2.48l-1.2,1.09c-6.33,2.71-14,.08-19.81,4.9-9.71,4.14-19.91,6.93-29.7,10.89a213.83,213.83,0,0,0-78.9,55.2C552.36,565.53,549,571.67,541.64,572.6Z"/><path class="cls-30" d="M997,319.42c16.14-29.24,41-44.36,74.29-42.66,32.86,1.69,56.41,19,69,49.25,12.33,29.61,6.37,57.11-13.74,81.72-2.28,2.78-4.47,5.82-8.18,7-1.25-3.86.85-9.55-5.91-10.42a3.78,3.78,0,0,1-3.05-2.88c-.82-12-9.85-13.51-18.89-15.46a25.28,25.28,0,0,1-12.19-6.94c-6.54-6.35-14.23-9.35-22.88-12.65-11.54-4.41-20.34-15.9-32.58-21.16-1.66-.71-1.71-3.9-1.79-6.08-.23-6.67-4.2-9.37-10.22-10.71C1005.21,327.18,999.16,326.1,997,319.42Z"/><path class="cls-23" d="M380.91,665.37c-3.11,11.41,7.24,13.57,13.29,16,7.27,3,1-5.68,3.69-7.45,19.13,6,36.69,15.53,57.3,17.31,7.94.68,17.13,4.87,25,9.33,11,6.25,14.59,4,15-8.76.18-4.89-2-10.28,2.15-14.64,3,2.75,3.31,6.48,3.15,10.07a300.6,300.6,0,0,0,8.37,86.3c.39,6.17-2.26,9.15-8.69,9.88-4.81.55-9.59,1.46-14-.67-18.25-8.91-39.08-7-57.77-14.12-4.44-1.69-9.41-.85-14.14-.9-5.54-.07-11-.42-15.67-3.85-4.39-3.23-7.18-2.64-8.58,3-.49,1.95-1.07,4.86-3.83,4.32-3.26-.63-.66-4.76-2.91-6.34A282.22,282.22,0,0,1,380.91,665.37Z"/><path class="cls-25" d="M383.39,764.83l3.81,5.24c.29-3.33.15-6,.82-8.51,1.53-5.69,5.56-7.63,9.33-2.85,4.59,5.82,10.18,6.4,16.5,6.1,9.19-.44,18.21-.19,26.27,5.21,1.14.77,2.89,1.49,4.1,1.19,16.87-4.22,30.37,7.16,45.75,9.61,6.2,1,13.1,2.62,16.49-5.48,6,1.63,6.36,7.55,8.24,11.87,10.87,25,23,49.17,41.89,69.34,1.73,1.85,3.26,3.93,2.88,6.75-13.13-1.66-21.35-10.53-29.36-19.64-3.93,9.18-14.4,11.05-26,2.7-5.62-4-10.92-4.91-17.17-4.82-17,.25-33.51-3.22-49.83-7.85-7.78-2.21-17.15-.1-21.86,3.95-6.56,5.63-7,2.21-9.66-2-1.9-3-1.31-7.34-5.11-9.25A202.23,202.23,0,0,1,383.39,764.83Z"/><path class="cls-23" d="M907.29,815c10.79,2,16.07-2.67,18.57-17.53,3,7.58,1.25,15.35,6.15,21.08,1.84,2.14,2.58,5.75,6.13,5.37,9.29-1,15.74,3.59,22.07,9.6,4,3.76,9.7,4.79,15,5.81,13.44,2.56,20.29,9.28,23,22.84.2,1,.4,2.62.93,2.76,9.51,2.52,5.54,8,3.08,13.25a4.33,4.33,0,0,0,1.06,5c-5.38,12.82-14.86,22.72-23.66,33.1-2.48,4.74-5.8,5.75-10.75,3.25-27.56-14-55.84-26.32-84.54-37.7-5.57-2.21-9.61-6.54-14.23-10-6.57-4.89,1.34-8.63,2-13,9.46-13.49,20.51-25.82,29.24-39.87C902.67,816.82,904.25,814.64,907.29,815Z"/><path class="cls-31" d="M997,319.42c3.18,1.67,6.2,4.18,9.59,4.86,10.16,2.05,19.45,4.14,17.51,18-.47,3.37,3.28,4.57,6,5.38,2.4.71,5,.62,7.53,1.08,9.42,1.74,9.54,16.54,17.51,15.87,9.52-.8,15.28,2,20.69,8.29,6.8,7.87,15.22,12.34,25.63,12.46,4.88.06,8.76,2.8,8.55,6.68-.49,9.5,4.57,12.48,12.45,12.44,1.21,5.26-4.51,6.36-4.13,10.22-31.3,31.38-89.09,24.85-115.7-13.52C984.67,375.29,982.58,347.81,997,319.42Z"/><path class="cls-23" d="M874.38,858.68c-8,11.13,2,16.48,8.5,19.24,30.11,12.71,60.41,24.92,89.21,40.48,3.95,2.13,5-1.72,7.62-2.18-8.31,15.11-21.32,26.11-33.44,37.83-6.46,6.23-12.74,12.83-20.84,17.13-5.12.73-8.62-3-10.81-6-9.4-12.86-23.31-18-37.14-23.56-3.73-1.48-7.76-2.49-10.82-5.11-12.18-10.45-26.24-18.25-39-27.89-3.29-2.5-8.16-4.54-5.14-10.33,15.5-13.4,32.92-24.45,47.74-38.71A4.58,4.58,0,0,1,874.38,858.68Z"/><path class="cls-32" d="M824.08,898.78c2.25,9.85,11.83,12.16,18.58,16.91,4.34,3,9.21,5.38,13.3,9.08,7.27,6.57,15,12.34,24.78,15.2,18.32,5.35,32.18,17.38,44.69,31.21-18.22,16.27-39.22,28.23-60.86,39.17-1.42.72-3.52.08-5.3.08,1.65-1.91,3.05-4.13,5-5.65,4.48-3.5,5.68-6.13-1.27-7.46-2.11-.4-5.33-.11-5.3-2.66.15-11.58-9.51-13.26-16.75-17.61-5.4-3.24-9.28-8.18-12.25-13.66-3.75-6.92-8.84-9.63-16.94-8.06-7.8,1.51-13.38-1.09-14.09-10.54-.63-8.4-7.68-10.8-14.44-12.69-9-2.5-18.05-4.66-27.07-7,3.33-4.28,8.71-4.43,13.13-6.55,15.31-4.48,29.34-12,43.88-18.36C816.64,898.72,820,895.53,824.08,898.78Z"/><path class="cls-27" d="M830.94,1023.7c-3.53-6-1.12-8.35,5.11-8.92,4.46-.41,8.3,1.67,12.46,2.41A31.11,31.11,0,0,1,830.94,1023.7Z"/><path class="cls-20" d="M1252.31,449.2c3.38,8.11,1.12,16.53,1.4,24.82C1251.6,465.84,1251.89,457.53,1252.31,449.2Z"/><path class="cls-9" d="M79.65,421.8c-2.34-6.67-4.7-13.34-7-20-.63-1.83-.51-3.73,1.4-4.65,1.75-.83,4.43-.34,4.71,1.28,1.32,7.72,6.72,15.09,4.09,23.23Z"/><path class="cls-26" d="M896.24,581.22a24.31,24.31,0,0,1-6.92-9.11c3.27,1.18,6.59,2,11.56-1.08Z"/><path class="cls-27" d="M686,925l56.92.16C724,931.65,705,929.9,686,925Z"/><path class="cls-27" d="M646.64,916.32a212.25,212.25,0,0,1,35.62,8.33C669.5,925.65,657.79,922.18,646.64,916.32Z"/><path class="cls-27" d="M589.56,887.72c6.86,1.92,12.48,5.86,17.57,10.67C599.76,897.33,594.36,893,589.56,887.72Z"/><path class="cls-27" d="M749,924.63c6.59-2.13,13.19-4.24,20.25-4-3.78,3.22-8.44,3.92-13.13,4.52Z"/><path class="cls-27" d="M607.24,898.45c4.63,1.33,9,3,12.39,6.74C614,905.63,608.79,905.44,607.24,898.45Z"/><path class="cls-26" d="M686.12,488.7a62.81,62.81,0,0,1-22,4.15C670.46,486.12,678.58,488.93,686.12,488.7Z"/><path class="cls-23" d="M478.83,477.82c-1.57-6.36.64-8.35,6-8.92C484.52,472.82,482.4,474.81,478.83,477.82Z"/></g></svg>